<mxfile host="www.draw.io" modified="2020-04-01T21:11:22.034Z" agent="5.0 (Macintosh; Intel Mac OS X 10_15_1) AppleWebKit/537.36 (KHTML, like Gecko) Chrome/80.0.3987.149 Safari/537.36" etag="0nr4b-pOvAE-50TNlK8M" version="12.9.6" type="github" pages="23">
  <diagram id="unl9QKwU0Ir1PE2C9jBq" name="01 - auth">
    <mxGraphModel dx="939" dy="462" grid="1" gridSize="10" guides="1" tooltips="1" connect="1" arrows="1" fold="1" page="1" pageScale="1" pageWidth="1920" pageHeight="1200" math="0" shadow="0">
      <root>
        <mxCell id="0" />
        <mxCell id="1" parent="0" />
        <mxCell id="DPHaUbNKXF2-yOt3HhRo-1" value="" style="strokeWidth=1;shadow=0;dashed=0;align=center;html=1;shape=mxgraph.mockup.containers.browserWindow;rSize=0;strokeColor=#666666;strokeColor2=#008cff;strokeColor3=#c4c4c4;mainText=,;recursiveResize=0;fontStyle=1" vertex="1" parent="1">
          <mxGeometry x="310" y="200" width="310" height="250" as="geometry" />
        </mxCell>
        <mxCell id="DPHaUbNKXF2-yOt3HhRo-2" value="Page 1" style="strokeWidth=1;shadow=0;dashed=0;align=center;html=1;shape=mxgraph.mockup.containers.anchor;fontSize=17;fontColor=#666666;align=left;" vertex="1" parent="DPHaUbNKXF2-yOt3HhRo-1">
          <mxGeometry x="60" y="12" width="110" height="26" as="geometry" />
        </mxCell>
        <mxCell id="DPHaUbNKXF2-yOt3HhRo-3" value="" style="strokeWidth=1;shadow=0;dashed=0;align=center;html=1;shape=mxgraph.mockup.containers.anchor;rSize=0;fontSize=17;fontColor=#666666;align=left;" vertex="1" parent="DPHaUbNKXF2-yOt3HhRo-1">
          <mxGeometry x="130" y="60" width="250" height="26" as="geometry" />
        </mxCell>
        <mxCell id="DPHaUbNKXF2-yOt3HhRo-4" value="React App" style="rounded=0;whiteSpace=wrap;html=1;fontSize=22;fillColor=#ffe6cc;strokeColor=#d79b00;fontStyle=1" vertex="1" parent="DPHaUbNKXF2-yOt3HhRo-1">
          <mxGeometry x="90" y="130" width="160" height="80" as="geometry" />
        </mxCell>
        <mxCell id="DPHaUbNKXF2-yOt3HhRo-5" value="Auth Service" style="rounded=0;whiteSpace=wrap;html=1;fillColor=#f5f5f5;strokeColor=#666666;fontColor=#333333;fontStyle=1;fontSize=19;" vertex="1" parent="1">
          <mxGeometry x="820" y="260" width="250" height="35" as="geometry" />
        </mxCell>
        <mxCell id="DPHaUbNKXF2-yOt3HhRo-6" value="" style="rounded=0;whiteSpace=wrap;html=1;fillColor=#f5f5f5;strokeColor=#666666;fontColor=#333333;fontStyle=1;fontSize=19;" vertex="1" parent="1">
          <mxGeometry x="820" y="295" width="250" height="105" as="geometry" />
        </mxCell>
        <mxCell id="DPHaUbNKXF2-yOt3HhRo-16" style="edgeStyle=orthogonalEdgeStyle;rounded=0;orthogonalLoop=1;jettySize=auto;html=1;exitX=1;exitY=0.25;exitDx=0;exitDy=0;entryX=0;entryY=0.25;entryDx=0;entryDy=0;" edge="1" parent="1" source="DPHaUbNKXF2-yOt3HhRo-7" target="DPHaUbNKXF2-yOt3HhRo-15">
          <mxGeometry relative="1" as="geometry" />
        </mxCell>
        <mxCell id="DPHaUbNKXF2-yOt3HhRo-7" value="Express App" style="rounded=0;whiteSpace=wrap;html=1;fontSize=15;" vertex="1" parent="1">
          <mxGeometry x="830" y="311.25" width="100" height="72.5" as="geometry" />
        </mxCell>
        <mxCell id="DPHaUbNKXF2-yOt3HhRo-8" value="" style="endArrow=classic;html=1;fontSize=15;" edge="1" parent="1">
          <mxGeometry width="50" height="50" relative="1" as="geometry">
            <mxPoint x="620.0000000000002" y="370" as="sourcePoint" />
            <mxPoint x="820" y="370" as="targetPoint" />
          </mxGeometry>
        </mxCell>
        <mxCell id="DPHaUbNKXF2-yOt3HhRo-9" value="{ email, password }" style="rounded=0;whiteSpace=wrap;html=1;fontSize=15;fillColor=#dae8fc;strokeColor=#6c8ebf;" vertex="1" parent="1">
          <mxGeometry x="650" y="340" width="150" height="30" as="geometry" />
        </mxCell>
        <mxCell id="DPHaUbNKXF2-yOt3HhRo-17" style="edgeStyle=orthogonalEdgeStyle;rounded=0;orthogonalLoop=1;jettySize=auto;html=1;exitX=0;exitY=0.75;exitDx=0;exitDy=0;entryX=1;entryY=0.75;entryDx=0;entryDy=0;" edge="1" parent="1" source="DPHaUbNKXF2-yOt3HhRo-15" target="DPHaUbNKXF2-yOt3HhRo-7">
          <mxGeometry relative="1" as="geometry" />
        </mxCell>
        <mxCell id="DPHaUbNKXF2-yOt3HhRo-19" style="edgeStyle=orthogonalEdgeStyle;rounded=0;orthogonalLoop=1;jettySize=auto;html=1;exitX=1;exitY=0.25;exitDx=0;exitDy=0;entryX=0;entryY=0.25;entryDx=0;entryDy=0;" edge="1" parent="1" source="DPHaUbNKXF2-yOt3HhRo-15" target="DPHaUbNKXF2-yOt3HhRo-18">
          <mxGeometry relative="1" as="geometry" />
        </mxCell>
        <mxCell id="DPHaUbNKXF2-yOt3HhRo-15" value="Mongoose" style="rounded=0;whiteSpace=wrap;html=1;fontSize=15;" vertex="1" parent="1">
          <mxGeometry x="960" y="311.25" width="100" height="72.5" as="geometry" />
        </mxCell>
        <mxCell id="DPHaUbNKXF2-yOt3HhRo-20" style="edgeStyle=orthogonalEdgeStyle;rounded=0;orthogonalLoop=1;jettySize=auto;html=1;exitX=0;exitY=0.75;exitDx=0;exitDy=0;entryX=1;entryY=0.75;entryDx=0;entryDy=0;" edge="1" parent="1" source="DPHaUbNKXF2-yOt3HhRo-18" target="DPHaUbNKXF2-yOt3HhRo-15">
          <mxGeometry relative="1" as="geometry" />
        </mxCell>
        <mxCell id="DPHaUbNKXF2-yOt3HhRo-18" value="MongoDB Instance" style="rounded=0;whiteSpace=wrap;html=1;fillColor=#f5f5f5;strokeColor=#666666;fontColor=#333333;fontStyle=1;fontSize=19;" vertex="1" parent="1">
          <mxGeometry x="1100" y="311.25" width="140" height="72.5" as="geometry" />
        </mxCell>
      </root>
    </mxGraphModel>
  </diagram>
  <diagram id="LUX8k7D1bEaKJNcARM9i" name="02 - sto">
    <mxGraphModel dx="601" dy="296" grid="1" gridSize="10" guides="1" tooltips="1" connect="1" arrows="1" fold="1" page="1" pageScale="1" pageWidth="1920" pageHeight="1200" math="0" shadow="0">
      <root>
        <mxCell id="AfpPpx0gtqGp28oXJmJQ-0" />
        <mxCell id="AfpPpx0gtqGp28oXJmJQ-1" parent="AfpPpx0gtqGp28oXJmJQ-0" />
        <mxCell id="AfpPpx0gtqGp28oXJmJQ-4" style="edgeStyle=orthogonalEdgeStyle;rounded=0;orthogonalLoop=1;jettySize=auto;html=1;exitX=0.5;exitY=1;exitDx=0;exitDy=0;" edge="1" parent="AfpPpx0gtqGp28oXJmJQ-1" source="AfpPpx0gtqGp28oXJmJQ-2" target="AfpPpx0gtqGp28oXJmJQ-3">
          <mxGeometry relative="1" as="geometry" />
        </mxCell>
        <mxCell id="AfpPpx0gtqGp28oXJmJQ-2" value="If we delete or restart the pod running MongoDB, we will lose all of the data in it!" style="rounded=0;whiteSpace=wrap;html=1;fillColor=#dae8fc;strokeColor=#6c8ebf;fontSize=17;" vertex="1" parent="AfpPpx0gtqGp28oXJmJQ-1">
          <mxGeometry x="630" y="170" width="440" height="60" as="geometry" />
        </mxCell>
        <mxCell id="AfpPpx0gtqGp28oXJmJQ-3" value="We will have a more in depth discussion on this later (and fix it)" style="rounded=0;whiteSpace=wrap;html=1;fillColor=#dae8fc;strokeColor=#6c8ebf;fontSize=17;" vertex="1" parent="AfpPpx0gtqGp28oXJmJQ-1">
          <mxGeometry x="630" y="280" width="440" height="60" as="geometry" />
        </mxCell>
      </root>
    </mxGraphModel>
  </diagram>
  <diagram name="03 - auth" id="GanEl1t_uSGGIdw0m06f">
    <mxGraphModel dx="715" dy="352" grid="1" gridSize="10" guides="1" tooltips="1" connect="1" arrows="1" fold="1" page="1" pageScale="1" pageWidth="1920" pageHeight="1200" math="0" shadow="0">
      <root>
        <mxCell id="6kkvw8EHueK7NCTaE9G8-0" />
        <mxCell id="6kkvw8EHueK7NCTaE9G8-1" parent="6kkvw8EHueK7NCTaE9G8-0" />
        <mxCell id="6kkvw8EHueK7NCTaE9G8-2" value="" style="strokeWidth=1;shadow=0;dashed=0;align=center;html=1;shape=mxgraph.mockup.containers.browserWindow;rSize=0;strokeColor=#666666;strokeColor2=#008cff;strokeColor3=#c4c4c4;mainText=,;recursiveResize=0;fontStyle=1" vertex="1" parent="6kkvw8EHueK7NCTaE9G8-1">
          <mxGeometry x="410" y="200" width="270" height="250" as="geometry" />
        </mxCell>
        <mxCell id="6kkvw8EHueK7NCTaE9G8-3" value="Page 1" style="strokeWidth=1;shadow=0;dashed=0;align=center;html=1;shape=mxgraph.mockup.containers.anchor;fontSize=17;fontColor=#666666;align=left;" vertex="1" parent="6kkvw8EHueK7NCTaE9G8-2">
          <mxGeometry x="60" y="12" width="110" height="26" as="geometry" />
        </mxCell>
        <mxCell id="6kkvw8EHueK7NCTaE9G8-4" value="" style="strokeWidth=1;shadow=0;dashed=0;align=center;html=1;shape=mxgraph.mockup.containers.anchor;rSize=0;fontSize=17;fontColor=#666666;align=left;" vertex="1" parent="6kkvw8EHueK7NCTaE9G8-2">
          <mxGeometry x="130" y="60" width="250" height="26" as="geometry" />
        </mxCell>
        <mxCell id="6kkvw8EHueK7NCTaE9G8-5" value="React App" style="rounded=0;whiteSpace=wrap;html=1;fontSize=22;fillColor=#ffe6cc;strokeColor=#d79b00;fontStyle=1" vertex="1" parent="6kkvw8EHueK7NCTaE9G8-2">
          <mxGeometry x="55" y="140" width="160" height="80" as="geometry" />
        </mxCell>
        <mxCell id="6kkvw8EHueK7NCTaE9G8-6" value="Auth Service" style="rounded=0;whiteSpace=wrap;html=1;fillColor=#f5f5f5;strokeColor=#666666;fontColor=#333333;fontStyle=1;fontSize=19;" vertex="1" parent="6kkvw8EHueK7NCTaE9G8-1">
          <mxGeometry x="820" y="205" width="420" height="35" as="geometry" />
        </mxCell>
        <mxCell id="6kkvw8EHueK7NCTaE9G8-7" value="" style="rounded=0;whiteSpace=wrap;html=1;fillColor=#f5f5f5;strokeColor=#666666;fontColor=#333333;fontStyle=1;fontSize=19;" vertex="1" parent="6kkvw8EHueK7NCTaE9G8-1">
          <mxGeometry x="820" y="240" width="420" height="230" as="geometry" />
        </mxCell>
        <mxCell id="6kkvw8EHueK7NCTaE9G8-10" value="" style="endArrow=classic;html=1;fontSize=15;" edge="1" parent="6kkvw8EHueK7NCTaE9G8-1">
          <mxGeometry width="50" height="50" relative="1" as="geometry">
            <mxPoint x="680" y="270" as="sourcePoint" />
            <mxPoint x="820" y="270" as="targetPoint" />
          </mxGeometry>
        </mxCell>
        <mxCell id="6kkvw8EHueK7NCTaE9G8-11" value="{ email, password }" style="rounded=0;whiteSpace=wrap;html=1;fontSize=15;fillColor=#dae8fc;strokeColor=#6c8ebf;" vertex="1" parent="6kkvw8EHueK7NCTaE9G8-1">
          <mxGeometry x="700" y="230" width="90" height="40" as="geometry" />
        </mxCell>
        <mxCell id="6kkvw8EHueK7NCTaE9G8-21" style="edgeStyle=orthogonalEdgeStyle;rounded=0;orthogonalLoop=1;jettySize=auto;html=1;exitX=0.5;exitY=1;exitDx=0;exitDy=0;entryX=0.5;entryY=0;entryDx=0;entryDy=0;fontSize=13;" edge="1" parent="6kkvw8EHueK7NCTaE9G8-1" source="6kkvw8EHueK7NCTaE9G8-17" target="6kkvw8EHueK7NCTaE9G8-20">
          <mxGeometry relative="1" as="geometry" />
        </mxCell>
        <mxCell id="6kkvw8EHueK7NCTaE9G8-31" style="edgeStyle=orthogonalEdgeStyle;rounded=0;orthogonalLoop=1;jettySize=auto;html=1;exitX=1;exitY=0.5;exitDx=0;exitDy=0;entryX=-0.008;entryY=0.134;entryDx=0;entryDy=0;entryPerimeter=0;fontSize=13;" edge="1" parent="6kkvw8EHueK7NCTaE9G8-1" source="6kkvw8EHueK7NCTaE9G8-17" target="6kkvw8EHueK7NCTaE9G8-30">
          <mxGeometry relative="1" as="geometry" />
        </mxCell>
        <mxCell id="6kkvw8EHueK7NCTaE9G8-17" value="Does a user with this email already exist? If so, respond with error" style="rounded=0;whiteSpace=wrap;html=1;fontSize=13;" vertex="1" parent="6kkvw8EHueK7NCTaE9G8-1">
          <mxGeometry x="830" y="250" width="280" height="40" as="geometry" />
        </mxCell>
        <mxCell id="6kkvw8EHueK7NCTaE9G8-19" value="&lt;b&gt;SIGNUP&lt;/b&gt;" style="rounded=0;whiteSpace=wrap;html=1;fontSize=15;fillColor=#dae8fc;strokeColor=#6c8ebf;" vertex="1" parent="6kkvw8EHueK7NCTaE9G8-1">
          <mxGeometry x="700" y="205" width="90" height="25" as="geometry" />
        </mxCell>
        <mxCell id="6kkvw8EHueK7NCTaE9G8-23" style="edgeStyle=orthogonalEdgeStyle;rounded=0;orthogonalLoop=1;jettySize=auto;html=1;exitX=0.5;exitY=1;exitDx=0;exitDy=0;entryX=0.5;entryY=0;entryDx=0;entryDy=0;fontSize=13;" edge="1" parent="6kkvw8EHueK7NCTaE9G8-1" source="6kkvw8EHueK7NCTaE9G8-20" target="6kkvw8EHueK7NCTaE9G8-22">
          <mxGeometry relative="1" as="geometry" />
        </mxCell>
        <mxCell id="6kkvw8EHueK7NCTaE9G8-20" value="Can&#39;t store passwords in plain text!&amp;nbsp; Hash the password the user entered" style="rounded=0;whiteSpace=wrap;html=1;fontSize=13;" vertex="1" parent="6kkvw8EHueK7NCTaE9G8-1">
          <mxGeometry x="830" y="305" width="280" height="40" as="geometry" />
        </mxCell>
        <mxCell id="6kkvw8EHueK7NCTaE9G8-32" style="edgeStyle=orthogonalEdgeStyle;rounded=0;orthogonalLoop=1;jettySize=auto;html=1;exitX=1;exitY=0.5;exitDx=0;exitDy=0;entryX=-0.022;entryY=0.864;entryDx=0;entryDy=0;entryPerimeter=0;fontSize=13;" edge="1" parent="6kkvw8EHueK7NCTaE9G8-1" source="6kkvw8EHueK7NCTaE9G8-22" target="6kkvw8EHueK7NCTaE9G8-30">
          <mxGeometry relative="1" as="geometry" />
        </mxCell>
        <mxCell id="6kkvw8EHueK7NCTaE9G8-22" value="Create a new User and save them to MongoDB" style="rounded=0;whiteSpace=wrap;html=1;fontSize=13;" vertex="1" parent="6kkvw8EHueK7NCTaE9G8-1">
          <mxGeometry x="830" y="360" width="280" height="40" as="geometry" />
        </mxCell>
        <mxCell id="6kkvw8EHueK7NCTaE9G8-24" style="edgeStyle=orthogonalEdgeStyle;rounded=0;orthogonalLoop=1;jettySize=auto;html=1;exitX=0.5;exitY=1;exitDx=0;exitDy=0;entryX=0.5;entryY=0;entryDx=0;entryDy=0;fontSize=13;" edge="1" parent="6kkvw8EHueK7NCTaE9G8-1" target="6kkvw8EHueK7NCTaE9G8-25">
          <mxGeometry relative="1" as="geometry">
            <mxPoint x="970" y="400" as="sourcePoint" />
          </mxGeometry>
        </mxCell>
        <mxCell id="6kkvw8EHueK7NCTaE9G8-34" style="edgeStyle=orthogonalEdgeStyle;rounded=0;orthogonalLoop=1;jettySize=auto;html=1;exitX=0;exitY=0.5;exitDx=0;exitDy=0;entryX=1.012;entryY=0.939;entryDx=0;entryDy=0;entryPerimeter=0;fontSize=13;" edge="1" parent="6kkvw8EHueK7NCTaE9G8-1" source="6kkvw8EHueK7NCTaE9G8-25" target="6kkvw8EHueK7NCTaE9G8-2">
          <mxGeometry relative="1" as="geometry" />
        </mxCell>
        <mxCell id="6kkvw8EHueK7NCTaE9G8-25" value="User is now considered to be logged in.&amp;nbsp; Send them a cookie/jwt/something" style="rounded=0;whiteSpace=wrap;html=1;fontSize=13;" vertex="1" parent="6kkvw8EHueK7NCTaE9G8-1">
          <mxGeometry x="830" y="415" width="280" height="40" as="geometry" />
        </mxCell>
        <mxCell id="6kkvw8EHueK7NCTaE9G8-26" value="" style="rounded=0;whiteSpace=wrap;html=1;fontSize=13;fillColor=#e1d5e7;strokeColor=#9673a6;" vertex="1" parent="6kkvw8EHueK7NCTaE9G8-1">
          <mxGeometry x="1290" y="205" width="150" height="265" as="geometry" />
        </mxCell>
        <mxCell id="6kkvw8EHueK7NCTaE9G8-27" value="&lt;span style=&quot;color: rgb(51 , 51 , 51) ; font-size: 19px&quot;&gt;MongoDB&lt;/span&gt;" style="rounded=0;whiteSpace=wrap;html=1;fontSize=13;fillColor=#e1d5e7;strokeColor=#9673a6;fontStyle=1" vertex="1" parent="6kkvw8EHueK7NCTaE9G8-1">
          <mxGeometry x="1290" y="205" width="150" height="35" as="geometry" />
        </mxCell>
        <mxCell id="6kkvw8EHueK7NCTaE9G8-28" value="User Collection" style="rounded=0;whiteSpace=wrap;html=1;fontSize=13;" vertex="1" parent="6kkvw8EHueK7NCTaE9G8-1">
          <mxGeometry x="1310" y="300" width="110" height="100" as="geometry" />
        </mxCell>
        <mxCell id="6kkvw8EHueK7NCTaE9G8-33" style="edgeStyle=orthogonalEdgeStyle;rounded=0;orthogonalLoop=1;jettySize=auto;html=1;exitX=1;exitY=0.5;exitDx=0;exitDy=0;entryX=0;entryY=0.25;entryDx=0;entryDy=0;fontSize=13;" edge="1" parent="6kkvw8EHueK7NCTaE9G8-1" source="6kkvw8EHueK7NCTaE9G8-30" target="6kkvw8EHueK7NCTaE9G8-28">
          <mxGeometry relative="1" as="geometry" />
        </mxCell>
        <mxCell id="6kkvw8EHueK7NCTaE9G8-30" value="Mongoose User Model" style="rounded=0;whiteSpace=wrap;html=1;fontSize=13;fillColor=#fff2cc;strokeColor=#d6b656;fontStyle=1" vertex="1" parent="6kkvw8EHueK7NCTaE9G8-1">
          <mxGeometry x="1150" y="250" width="80" height="150" as="geometry" />
        </mxCell>
        <mxCell id="6kkvw8EHueK7NCTaE9G8-35" value="&lt;b&gt;Response&lt;/b&gt;" style="rounded=0;whiteSpace=wrap;html=1;fontSize=15;fillColor=#dae8fc;strokeColor=#6c8ebf;" vertex="1" parent="6kkvw8EHueK7NCTaE9G8-1">
          <mxGeometry x="713" y="435" width="90" height="25" as="geometry" />
        </mxCell>
      </root>
    </mxGraphModel>
  </diagram>
  <diagram id="7MhJfgEWZlJ9l6-lOAeF" name="04 - mongoose">
    <mxGraphModel dx="601" dy="296" grid="1" gridSize="10" guides="1" tooltips="1" connect="1" arrows="1" fold="1" page="1" pageScale="1" pageWidth="1920" pageHeight="1200" math="0" shadow="0">
      <root>
        <mxCell id="uOOGHx2yZ9HFkhzBKnsO-0" />
        <mxCell id="uOOGHx2yZ9HFkhzBKnsO-1" parent="uOOGHx2yZ9HFkhzBKnsO-0" />
        <mxCell id="u9ScNwFZ7urygbcfSo5k-0" value="" style="rounded=0;whiteSpace=wrap;html=1;fontSize=13;fillColor=#e1d5e7;strokeColor=#9673a6;" vertex="1" parent="uOOGHx2yZ9HFkhzBKnsO-1">
          <mxGeometry x="590" y="260" width="240" height="130" as="geometry" />
        </mxCell>
        <mxCell id="u9ScNwFZ7urygbcfSo5k-1" value="&lt;span style=&quot;color: rgb(51 , 51 , 51) ; font-size: 19px&quot;&gt;MongoDB&lt;/span&gt;" style="rounded=0;whiteSpace=wrap;html=1;fontSize=13;fillColor=#e1d5e7;strokeColor=#9673a6;fontStyle=1" vertex="1" parent="uOOGHx2yZ9HFkhzBKnsO-1">
          <mxGeometry x="590" y="225" width="240" height="35" as="geometry" />
        </mxCell>
        <mxCell id="u9ScNwFZ7urygbcfSo5k-2" value="User Collection" style="rounded=0;whiteSpace=wrap;html=1;fontSize=13;fillColor=#f5f5f5;strokeColor=#666666;fontColor=#333333;fontStyle=1" vertex="1" parent="uOOGHx2yZ9HFkhzBKnsO-1">
          <mxGeometry x="600" y="275" width="220" height="25" as="geometry" />
        </mxCell>
        <mxCell id="u9ScNwFZ7urygbcfSo5k-4" value="Mongoose User Model" style="rounded=0;whiteSpace=wrap;html=1;fontSize=13;fillColor=#fff2cc;strokeColor=#d6b656;fontStyle=1" vertex="1" parent="uOOGHx2yZ9HFkhzBKnsO-1">
          <mxGeometry x="446" y="310" width="120" height="60" as="geometry" />
        </mxCell>
        <mxCell id="u9ScNwFZ7urygbcfSo5k-5" value="" style="rounded=0;whiteSpace=wrap;html=1;fontSize=13;fillColor=#f5f5f5;strokeColor=#666666;fontColor=#333333;" vertex="1" parent="uOOGHx2yZ9HFkhzBKnsO-1">
          <mxGeometry x="600" y="300" width="220" height="80" as="geometry" />
        </mxCell>
        <mxCell id="u9ScNwFZ7urygbcfSo5k-6" value="User #1" style="rounded=0;whiteSpace=wrap;html=1;fontSize=13;fontStyle=2;fillColor=#d5e8d4;strokeColor=#82b366;" vertex="1" parent="uOOGHx2yZ9HFkhzBKnsO-1">
          <mxGeometry x="610" y="310" width="90" height="25" as="geometry" />
        </mxCell>
        <mxCell id="u9ScNwFZ7urygbcfSo5k-7" value="User #2" style="rounded=0;whiteSpace=wrap;html=1;fontSize=13;fontStyle=2;fillColor=#d5e8d4;strokeColor=#82b366;" vertex="1" parent="uOOGHx2yZ9HFkhzBKnsO-1">
          <mxGeometry x="720" y="310" width="90" height="25" as="geometry" />
        </mxCell>
        <mxCell id="u9ScNwFZ7urygbcfSo5k-8" value="User #3" style="rounded=0;whiteSpace=wrap;html=1;fontSize=13;fontStyle=2;fillColor=#d5e8d4;strokeColor=#82b366;" vertex="1" parent="uOOGHx2yZ9HFkhzBKnsO-1">
          <mxGeometry x="610" y="344" width="90" height="25" as="geometry" />
        </mxCell>
        <mxCell id="u9ScNwFZ7urygbcfSo5k-9" value="User #4" style="rounded=0;whiteSpace=wrap;html=1;fontSize=13;fontStyle=2;fillColor=#d5e8d4;strokeColor=#82b366;" vertex="1" parent="uOOGHx2yZ9HFkhzBKnsO-1">
          <mxGeometry x="720" y="344" width="90" height="25" as="geometry" />
        </mxCell>
        <mxCell id="u9ScNwFZ7urygbcfSo5k-10" value="Mongoose User Document" style="rounded=0;whiteSpace=wrap;html=1;fontSize=13;fillColor=#fff2cc;strokeColor=#d6b656;fontStyle=1" vertex="1" parent="uOOGHx2yZ9HFkhzBKnsO-1">
          <mxGeometry x="843" y="292.5" width="120" height="60" as="geometry" />
        </mxCell>
        <mxCell id="u9ScNwFZ7urygbcfSo5k-11" value="" style="shape=curlyBracket;whiteSpace=wrap;html=1;rounded=1;fontSize=13;rotation=-180;" vertex="1" parent="uOOGHx2yZ9HFkhzBKnsO-1">
          <mxGeometry x="814" y="310" width="30" height="25" as="geometry" />
        </mxCell>
        <mxCell id="u9ScNwFZ7urygbcfSo5k-12" value="Represents one single user" style="text;html=1;strokeColor=none;fillColor=none;align=center;verticalAlign=middle;whiteSpace=wrap;rounded=0;fontSize=13;fontStyle=2" vertex="1" parent="uOOGHx2yZ9HFkhzBKnsO-1">
          <mxGeometry x="854.5" y="352.5" width="97" height="30" as="geometry" />
        </mxCell>
        <mxCell id="u9ScNwFZ7urygbcfSo5k-13" value="" style="shape=curlyBracket;whiteSpace=wrap;html=1;rounded=1;fontSize=13;rotation=0;" vertex="1" parent="uOOGHx2yZ9HFkhzBKnsO-1">
          <mxGeometry x="566" y="300" width="30" height="80" as="geometry" />
        </mxCell>
        <mxCell id="u9ScNwFZ7urygbcfSo5k-14" value="Represents the entire collection of users" style="text;html=1;strokeColor=none;fillColor=none;align=center;verticalAlign=middle;whiteSpace=wrap;rounded=0;fontSize=13;fontStyle=2" vertex="1" parent="uOOGHx2yZ9HFkhzBKnsO-1">
          <mxGeometry x="457.5" y="377" width="97" height="30" as="geometry" />
        </mxCell>
      </root>
    </mxGraphModel>
  </diagram>
  <diagram id="24B--XxwFlk7WRy3bTVb" name="05 - m">
    <mxGraphModel dx="601" dy="296" grid="1" gridSize="10" guides="1" tooltips="1" connect="1" arrows="1" fold="1" page="1" pageScale="1" pageWidth="1920" pageHeight="1200" math="0" shadow="0">
      <root>
        <mxCell id="2i62QDjw80bGlP2GjIEc-0" />
        <mxCell id="2i62QDjw80bGlP2GjIEc-1" parent="2i62QDjw80bGlP2GjIEc-0" />
        <mxCell id="PXCfLC5JLTR5Eov9wG-h-0" value="new User({ email: &#39;test@test.com&#39;, password: &#39;lk325kj2&#39; })" style="rounded=0;whiteSpace=wrap;html=1;fontSize=13;fillColor=#dae8fc;strokeColor=#6c8ebf;fontStyle=1" vertex="1" parent="2i62QDjw80bGlP2GjIEc-1">
          <mxGeometry x="530" y="290" width="430" height="50" as="geometry" />
        </mxCell>
        <mxCell id="PXCfLC5JLTR5Eov9wG-h-1" value="Creating a new User Document" style="text;html=1;strokeColor=none;fillColor=none;align=center;verticalAlign=middle;whiteSpace=wrap;rounded=0;fontSize=13;fontStyle=2" vertex="1" parent="2i62QDjw80bGlP2GjIEc-1">
          <mxGeometry x="657.5" y="260" width="175" height="20" as="geometry" />
        </mxCell>
        <mxCell id="duGneUoO852O0gYtUuxt-0" value="Issue #1 with TS + Mongoose" style="text;html=1;strokeColor=none;fillColor=none;align=center;verticalAlign=middle;whiteSpace=wrap;rounded=0;fontSize=13;fontStyle=5" vertex="1" parent="2i62QDjw80bGlP2GjIEc-1">
          <mxGeometry x="490" y="220" width="230" height="20" as="geometry" />
        </mxCell>
      </root>
    </mxGraphModel>
  </diagram>
  <diagram name="06 - ts" id="kTC30R4S65JpMzQZoJH7">
    <mxGraphModel dx="601" dy="296" grid="1" gridSize="10" guides="1" tooltips="1" connect="1" arrows="1" fold="1" page="1" pageScale="1" pageWidth="1920" pageHeight="1200" math="0" shadow="0">
      <root>
        <mxCell id="NRrTkXQd9ZWY_lhJ8x_S-0" />
        <mxCell id="NRrTkXQd9ZWY_lhJ8x_S-1" parent="NRrTkXQd9ZWY_lhJ8x_S-0" />
        <mxCell id="NRrTkXQd9ZWY_lhJ8x_S-2" value="new User({ email: &#39;test@test.com&#39;, password: &#39;lk325kj2&#39; })" style="rounded=0;whiteSpace=wrap;html=1;fontSize=13;fillColor=#dae8fc;strokeColor=#6c8ebf;fontStyle=1" vertex="1" parent="NRrTkXQd9ZWY_lhJ8x_S-1">
          <mxGeometry x="530" y="290" width="430" height="50" as="geometry" />
        </mxCell>
        <mxCell id="NRrTkXQd9ZWY_lhJ8x_S-3" value="Creating a new User Document" style="text;html=1;strokeColor=none;fillColor=none;align=center;verticalAlign=middle;whiteSpace=wrap;rounded=0;fontSize=13;fontStyle=2" vertex="1" parent="NRrTkXQd9ZWY_lhJ8x_S-1">
          <mxGeometry x="657.5" y="260" width="175" height="20" as="geometry" />
        </mxCell>
        <mxCell id="NRrTkXQd9ZWY_lhJ8x_S-4" value="" style="shape=curlyBracket;whiteSpace=wrap;html=1;rounded=1;fontSize=13;rotation=-90;" vertex="1" parent="NRrTkXQd9ZWY_lhJ8x_S-1">
          <mxGeometry x="757.5" y="202.5" width="35" height="290" as="geometry" />
        </mxCell>
        <mxCell id="NRrTkXQd9ZWY_lhJ8x_S-5" value="Typescript wants to make sure we are providing the correct properties - Mongoose does not make this easy!" style="text;html=1;strokeColor=none;fillColor=none;align=center;verticalAlign=middle;whiteSpace=wrap;rounded=0;fontSize=13;fontStyle=0" vertex="1" parent="NRrTkXQd9ZWY_lhJ8x_S-1">
          <mxGeometry x="653.75" y="370" width="242.5" height="30" as="geometry" />
        </mxCell>
        <mxCell id="3DifghKtDI2gipp7pktN-0" value="Issue #1 with TS + Mongoose" style="text;html=1;strokeColor=none;fillColor=none;align=center;verticalAlign=middle;whiteSpace=wrap;rounded=0;fontSize=13;fontStyle=5" vertex="1" parent="NRrTkXQd9ZWY_lhJ8x_S-1">
          <mxGeometry x="490" y="220" width="230" height="20" as="geometry" />
        </mxCell>
      </root>
    </mxGraphModel>
  </diagram>
  <diagram name="07 - ts" id="zD9yp86iYdRzvlGDVtm4">
    <mxGraphModel dx="601" dy="296" grid="1" gridSize="10" guides="1" tooltips="1" connect="1" arrows="1" fold="1" page="1" pageScale="1" pageWidth="1920" pageHeight="1200" math="0" shadow="0">
      <root>
        <mxCell id="6kmRMLjHm2MGL4raaBMh-0" />
        <mxCell id="6kmRMLjHm2MGL4raaBMh-1" parent="6kmRMLjHm2MGL4raaBMh-0" />
        <mxCell id="Sz4TFe-vi2OUuPkls2Qc-1" style="edgeStyle=orthogonalEdgeStyle;rounded=0;orthogonalLoop=1;jettySize=auto;html=1;exitX=0.5;exitY=1;exitDx=0;exitDy=0;entryX=0.5;entryY=0;entryDx=0;entryDy=0;fontSize=13;" edge="1" parent="6kmRMLjHm2MGL4raaBMh-1" source="6kmRMLjHm2MGL4raaBMh-2" target="qA2I0-mN6NvgQe7Fw1Pr-2">
          <mxGeometry relative="1" as="geometry" />
        </mxCell>
        <mxCell id="6kmRMLjHm2MGL4raaBMh-2" value="const user = new User({ email: &#39;test@test.com&#39;, password: &#39;lk325kj2&#39; })" style="rounded=0;whiteSpace=wrap;html=1;fontSize=13;fillColor=#dae8fc;strokeColor=#6c8ebf;fontStyle=1" vertex="1" parent="6kmRMLjHm2MGL4raaBMh-1">
          <mxGeometry x="530" y="290" width="500" height="50" as="geometry" />
        </mxCell>
        <mxCell id="qA2I0-mN6NvgQe7Fw1Pr-0" value="Issue #2 with TS + Mongoose" style="text;html=1;strokeColor=none;fillColor=none;align=center;verticalAlign=middle;whiteSpace=wrap;rounded=0;fontSize=13;fontStyle=5" vertex="1" parent="6kmRMLjHm2MGL4raaBMh-1">
          <mxGeometry x="470" y="250" width="230" height="20" as="geometry" />
        </mxCell>
        <mxCell id="qA2I0-mN6NvgQe7Fw1Pr-2" value="console.log(user); // { email: &#39;..&#39;, password: &#39;..&#39;, createdAt: &#39;..&#39;, updatedAt: &#39;..&#39; }" style="rounded=0;whiteSpace=wrap;html=1;fontSize=13;fillColor=#dae8fc;strokeColor=#6c8ebf;fontStyle=1" vertex="1" parent="6kmRMLjHm2MGL4raaBMh-1">
          <mxGeometry x="530" y="360" width="500" height="50" as="geometry" />
        </mxCell>
        <mxCell id="Sz4TFe-vi2OUuPkls2Qc-0" value="The properties that we pass to the User constructor don&#39;t necessarily match up with the properties available on a user" style="text;html=1;strokeColor=none;fillColor=none;align=center;verticalAlign=middle;whiteSpace=wrap;rounded=0;fontSize=13;fontStyle=0" vertex="1" parent="6kmRMLjHm2MGL4raaBMh-1">
          <mxGeometry x="658.75" y="420" width="242.5" height="30" as="geometry" />
        </mxCell>
      </root>
    </mxGraphModel>
  </diagram>
  <diagram id="f60xrSET4LPWzVbzE7T1" name="08 - hashing">
    <mxGraphModel dx="858" dy="422" grid="1" gridSize="10" guides="1" tooltips="1" connect="1" arrows="1" fold="1" page="1" pageScale="1" pageWidth="1920" pageHeight="1200" math="0" shadow="0">
      <root>
        <mxCell id="JoL5sScF6yHnG0T5Fap--0" />
        <mxCell id="JoL5sScF6yHnG0T5Fap--1" parent="JoL5sScF6yHnG0T5Fap--0" />
        <mxCell id="MuVdxE0BAxxXLCZmm-bu-4" value="Auth Service" style="rounded=0;whiteSpace=wrap;html=1;fillColor=#f5f5f5;strokeColor=#666666;fontColor=#333333;fontStyle=1;fontSize=19;" vertex="1" parent="JoL5sScF6yHnG0T5Fap--1">
          <mxGeometry x="540" y="215" width="200" height="35" as="geometry" />
        </mxCell>
        <mxCell id="MuVdxE0BAxxXLCZmm-bu-5" value="" style="rounded=0;whiteSpace=wrap;html=1;fillColor=#f5f5f5;strokeColor=#666666;fontColor=#333333;fontStyle=1;fontSize=19;" vertex="1" parent="JoL5sScF6yHnG0T5Fap--1">
          <mxGeometry x="540" y="250" width="200" height="190" as="geometry" />
        </mxCell>
        <mxCell id="MuVdxE0BAxxXLCZmm-bu-6" value="" style="endArrow=classic;html=1;fontSize=15;" edge="1" parent="JoL5sScF6yHnG0T5Fap--1">
          <mxGeometry width="50" height="50" relative="1" as="geometry">
            <mxPoint x="330" y="335" as="sourcePoint" />
            <mxPoint x="540" y="335" as="targetPoint" />
          </mxGeometry>
        </mxCell>
        <mxCell id="MuVdxE0BAxxXLCZmm-bu-7" value="{ email: &#39;test@test.com&#39;, password: &#39;wordpass&#39;" style="rounded=0;whiteSpace=wrap;html=1;fontSize=15;fillColor=#dae8fc;strokeColor=#6c8ebf;" vertex="1" parent="JoL5sScF6yHnG0T5Fap--1">
          <mxGeometry x="340" y="295" width="180" height="40" as="geometry" />
        </mxCell>
        <mxCell id="MuVdxE0BAxxXLCZmm-bu-11" value="&lt;b&gt;SIGNUP&lt;/b&gt;" style="rounded=0;whiteSpace=wrap;html=1;fontSize=15;fillColor=#dae8fc;strokeColor=#6c8ebf;" vertex="1" parent="JoL5sScF6yHnG0T5Fap--1">
          <mxGeometry x="340" y="270" width="180" height="25" as="geometry" />
        </mxCell>
        <mxCell id="MuVdxE0BAxxXLCZmm-bu-19" value="" style="rounded=0;whiteSpace=wrap;html=1;fontSize=13;fillColor=#e1d5e7;strokeColor=#9673a6;" vertex="1" parent="JoL5sScF6yHnG0T5Fap--1">
          <mxGeometry x="800" y="210" width="210" height="230" as="geometry" />
        </mxCell>
        <mxCell id="MuVdxE0BAxxXLCZmm-bu-20" value="&lt;span style=&quot;color: rgb(51 , 51 , 51) ; font-size: 19px&quot;&gt;MongoDB&lt;/span&gt;" style="rounded=0;whiteSpace=wrap;html=1;fontSize=13;fillColor=#e1d5e7;strokeColor=#9673a6;fontStyle=1" vertex="1" parent="JoL5sScF6yHnG0T5Fap--1">
          <mxGeometry x="800" y="210" width="210" height="35" as="geometry" />
        </mxCell>
        <mxCell id="MuVdxE0BAxxXLCZmm-bu-21" value="" style="rounded=0;whiteSpace=wrap;html=1;fontSize=13;" vertex="1" parent="JoL5sScF6yHnG0T5Fap--1">
          <mxGeometry x="820" y="305" width="170" height="100" as="geometry" />
        </mxCell>
        <mxCell id="MuVdxE0BAxxXLCZmm-bu-22" style="edgeStyle=orthogonalEdgeStyle;rounded=0;orthogonalLoop=1;jettySize=auto;html=1;exitX=1;exitY=0.5;exitDx=0;exitDy=0;entryX=0;entryY=0.25;entryDx=0;entryDy=0;fontSize=13;" edge="1" parent="JoL5sScF6yHnG0T5Fap--1" target="MuVdxE0BAxxXLCZmm-bu-21">
          <mxGeometry relative="1" as="geometry">
            <mxPoint x="740" y="330" as="sourcePoint" />
          </mxGeometry>
        </mxCell>
        <mxCell id="MuVdxE0BAxxXLCZmm-bu-26" value="React App" style="rounded=0;whiteSpace=wrap;html=1;fontSize=22;fillColor=#ffe6cc;strokeColor=#d79b00;fontStyle=1" vertex="1" parent="JoL5sScF6yHnG0T5Fap--1">
          <mxGeometry x="170" y="315" width="160" height="80" as="geometry" />
        </mxCell>
        <mxCell id="MuVdxE0BAxxXLCZmm-bu-27" value="Create a new user with email of &#39;test@test.com&#39; and password &#39;wordpass&#39;" style="rounded=0;whiteSpace=wrap;html=1;fontSize=13;" vertex="1" parent="JoL5sScF6yHnG0T5Fap--1">
          <mxGeometry x="550" y="270" width="180" height="110" as="geometry" />
        </mxCell>
        <mxCell id="MuVdxE0BAxxXLCZmm-bu-28" value="{ email: &#39;test@test.com&#39;, password: &#39;wordpass&#39; }" style="rounded=0;whiteSpace=wrap;html=1;fontSize=12;fillColor=#d5e8d4;strokeColor=#82b366;" vertex="1" parent="JoL5sScF6yHnG0T5Fap--1">
          <mxGeometry x="835" y="325" width="140" height="40" as="geometry" />
        </mxCell>
        <mxCell id="MuVdxE0BAxxXLCZmm-bu-29" value="User Collection" style="rounded=0;whiteSpace=wrap;html=1;fontSize=13;" vertex="1" parent="JoL5sScF6yHnG0T5Fap--1">
          <mxGeometry x="820" y="270" width="170" height="35" as="geometry" />
        </mxCell>
        <mxCell id="MuVdxE0BAxxXLCZmm-bu-30" value="Bad Approach" style="rounded=0;whiteSpace=wrap;html=1;fontSize=24;fillColor=#f8cecc;strokeColor=#b85450;fontStyle=1" vertex="1" parent="JoL5sScF6yHnG0T5Fap--1">
          <mxGeometry x="450" y="490" width="340" height="60" as="geometry" />
        </mxCell>
      </root>
    </mxGraphModel>
  </diagram>
  <diagram name="09 - hash" id="s_PQmoopLjpd8IoW9pmI">
    <mxGraphModel dx="858" dy="422" grid="1" gridSize="10" guides="1" tooltips="1" connect="1" arrows="1" fold="1" page="1" pageScale="1" pageWidth="1920" pageHeight="1200" math="0" shadow="0">
      <root>
        <mxCell id="oKSwz37NwxyxK3d0_e-E-0" />
        <mxCell id="oKSwz37NwxyxK3d0_e-E-1" parent="oKSwz37NwxyxK3d0_e-E-0" />
        <mxCell id="oKSwz37NwxyxK3d0_e-E-2" value="Auth Service" style="rounded=0;whiteSpace=wrap;html=1;fillColor=#f5f5f5;strokeColor=#666666;fontColor=#333333;fontStyle=1;fontSize=19;" vertex="1" parent="oKSwz37NwxyxK3d0_e-E-1">
          <mxGeometry x="540" y="215" width="200" height="35" as="geometry" />
        </mxCell>
        <mxCell id="oKSwz37NwxyxK3d0_e-E-3" value="" style="rounded=0;whiteSpace=wrap;html=1;fillColor=#f5f5f5;strokeColor=#666666;fontColor=#333333;fontStyle=1;fontSize=19;" vertex="1" parent="oKSwz37NwxyxK3d0_e-E-1">
          <mxGeometry x="540" y="250" width="200" height="190" as="geometry" />
        </mxCell>
        <mxCell id="oKSwz37NwxyxK3d0_e-E-4" value="" style="endArrow=classic;html=1;fontSize=15;" edge="1" parent="oKSwz37NwxyxK3d0_e-E-1">
          <mxGeometry width="50" height="50" relative="1" as="geometry">
            <mxPoint x="330" y="335" as="sourcePoint" />
            <mxPoint x="540" y="335" as="targetPoint" />
          </mxGeometry>
        </mxCell>
        <mxCell id="oKSwz37NwxyxK3d0_e-E-5" value="{ email: &#39;test@test.com&#39;, password: &#39;wordpass&#39;" style="rounded=0;whiteSpace=wrap;html=1;fontSize=15;fillColor=#dae8fc;strokeColor=#6c8ebf;" vertex="1" parent="oKSwz37NwxyxK3d0_e-E-1">
          <mxGeometry x="340" y="295" width="180" height="40" as="geometry" />
        </mxCell>
        <mxCell id="oKSwz37NwxyxK3d0_e-E-6" value="&lt;b&gt;SIGNUP&lt;/b&gt;" style="rounded=0;whiteSpace=wrap;html=1;fontSize=15;fillColor=#dae8fc;strokeColor=#6c8ebf;" vertex="1" parent="oKSwz37NwxyxK3d0_e-E-1">
          <mxGeometry x="340" y="270" width="180" height="25" as="geometry" />
        </mxCell>
        <mxCell id="oKSwz37NwxyxK3d0_e-E-7" value="" style="rounded=0;whiteSpace=wrap;html=1;fontSize=13;fillColor=#e1d5e7;strokeColor=#9673a6;" vertex="1" parent="oKSwz37NwxyxK3d0_e-E-1">
          <mxGeometry x="800" y="210" width="230" height="230" as="geometry" />
        </mxCell>
        <mxCell id="oKSwz37NwxyxK3d0_e-E-8" value="&lt;span style=&quot;color: rgb(51 , 51 , 51) ; font-size: 19px&quot;&gt;MongoDB&lt;/span&gt;" style="rounded=0;whiteSpace=wrap;html=1;fontSize=13;fillColor=#e1d5e7;strokeColor=#9673a6;fontStyle=1" vertex="1" parent="oKSwz37NwxyxK3d0_e-E-1">
          <mxGeometry x="800" y="210" width="230" height="35" as="geometry" />
        </mxCell>
        <mxCell id="oKSwz37NwxyxK3d0_e-E-9" value="" style="rounded=0;whiteSpace=wrap;html=1;fontSize=13;" vertex="1" parent="oKSwz37NwxyxK3d0_e-E-1">
          <mxGeometry x="820" y="305" width="200" height="100" as="geometry" />
        </mxCell>
        <mxCell id="oKSwz37NwxyxK3d0_e-E-11" value="React App" style="rounded=0;whiteSpace=wrap;html=1;fontSize=22;fillColor=#ffe6cc;strokeColor=#d79b00;fontStyle=1" vertex="1" parent="oKSwz37NwxyxK3d0_e-E-1">
          <mxGeometry x="170" y="315" width="160" height="80" as="geometry" />
        </mxCell>
        <mxCell id="oKSwz37NwxyxK3d0_e-E-17" style="edgeStyle=orthogonalEdgeStyle;rounded=0;orthogonalLoop=1;jettySize=auto;html=1;exitX=0.5;exitY=1;exitDx=0;exitDy=0;entryX=0.5;entryY=0;entryDx=0;entryDy=0;fontSize=24;" edge="1" parent="oKSwz37NwxyxK3d0_e-E-1" source="oKSwz37NwxyxK3d0_e-E-12" target="oKSwz37NwxyxK3d0_e-E-16">
          <mxGeometry relative="1" as="geometry" />
        </mxCell>
        <mxCell id="oKSwz37NwxyxK3d0_e-E-12" value="Hash password of &#39;wordpass&#39;" style="rounded=0;whiteSpace=wrap;html=1;fontSize=13;" vertex="1" parent="oKSwz37NwxyxK3d0_e-E-1">
          <mxGeometry x="550" y="265" width="180" height="45" as="geometry" />
        </mxCell>
        <mxCell id="oKSwz37NwxyxK3d0_e-E-13" value="{ email: &#39;test@test.com&#39;, password: &#39;&lt;span style=&quot;font-size: 13px&quot;&gt;&lt;b&gt;lkjsdlkj23lk5jl2l&lt;/b&gt;&lt;/span&gt;&#39; }" style="rounded=0;whiteSpace=wrap;html=1;fontSize=12;fillColor=#d5e8d4;strokeColor=#82b366;" vertex="1" parent="oKSwz37NwxyxK3d0_e-E-1">
          <mxGeometry x="835" y="325" width="175" height="40" as="geometry" />
        </mxCell>
        <mxCell id="oKSwz37NwxyxK3d0_e-E-14" value="User Collection" style="rounded=0;whiteSpace=wrap;html=1;fontSize=13;" vertex="1" parent="oKSwz37NwxyxK3d0_e-E-1">
          <mxGeometry x="820" y="270" width="200" height="35" as="geometry" />
        </mxCell>
        <mxCell id="ICR4WHn3XwHoxY85SvCs-1" style="edgeStyle=orthogonalEdgeStyle;rounded=0;orthogonalLoop=1;jettySize=auto;html=1;exitX=0.5;exitY=1;exitDx=0;exitDy=0;entryX=0.5;entryY=0;entryDx=0;entryDy=0;fontSize=24;" edge="1" parent="oKSwz37NwxyxK3d0_e-E-1" source="oKSwz37NwxyxK3d0_e-E-16" target="ICR4WHn3XwHoxY85SvCs-0">
          <mxGeometry relative="1" as="geometry" />
        </mxCell>
        <mxCell id="oKSwz37NwxyxK3d0_e-E-16" value="&#39;lkjsdlkj23lk5jl2l&#39;" style="rounded=0;whiteSpace=wrap;html=1;fontSize=13;" vertex="1" parent="oKSwz37NwxyxK3d0_e-E-1">
          <mxGeometry x="550" y="325" width="180" height="40" as="geometry" />
        </mxCell>
        <mxCell id="R-uU7ijMRgOqLlTLL_rB-0" style="edgeStyle=orthogonalEdgeStyle;rounded=0;orthogonalLoop=1;jettySize=auto;html=1;exitX=1;exitY=0.5;exitDx=0;exitDy=0;entryX=0;entryY=0.5;entryDx=0;entryDy=0;fontSize=24;" edge="1" parent="oKSwz37NwxyxK3d0_e-E-1" source="ICR4WHn3XwHoxY85SvCs-0" target="oKSwz37NwxyxK3d0_e-E-13">
          <mxGeometry relative="1" as="geometry" />
        </mxCell>
        <mxCell id="ICR4WHn3XwHoxY85SvCs-0" value="Create a new user with email of &#39;test@test.com&#39; and password &#39;&lt;b&gt;lkjsdlkj23lk5jl2l&lt;/b&gt;&#39;" style="rounded=0;whiteSpace=wrap;html=1;fontSize=13;" vertex="1" parent="oKSwz37NwxyxK3d0_e-E-1">
          <mxGeometry x="550" y="380" width="180" height="50" as="geometry" />
        </mxCell>
      </root>
    </mxGraphModel>
  </diagram>
  <diagram name="10 - signin" id="2b-hLI42K3JaH7kN-GIG">
    <mxGraphModel dx="858" dy="422" grid="1" gridSize="10" guides="1" tooltips="1" connect="1" arrows="1" fold="1" page="1" pageScale="1" pageWidth="1920" pageHeight="1200" math="0" shadow="0">
      <root>
        <mxCell id="DzbCIcEiqelJBFmlbiZg-0" />
        <mxCell id="DzbCIcEiqelJBFmlbiZg-1" parent="DzbCIcEiqelJBFmlbiZg-0" />
        <mxCell id="DzbCIcEiqelJBFmlbiZg-2" value="Auth Service" style="rounded=0;whiteSpace=wrap;html=1;fillColor=#f5f5f5;strokeColor=#666666;fontColor=#333333;fontStyle=1;fontSize=19;" vertex="1" parent="DzbCIcEiqelJBFmlbiZg-1">
          <mxGeometry x="540" y="215" width="200" height="35" as="geometry" />
        </mxCell>
        <mxCell id="DzbCIcEiqelJBFmlbiZg-3" value="" style="rounded=0;whiteSpace=wrap;html=1;fillColor=#f5f5f5;strokeColor=#666666;fontColor=#333333;fontStyle=1;fontSize=19;" vertex="1" parent="DzbCIcEiqelJBFmlbiZg-1">
          <mxGeometry x="540" y="250" width="200" height="250" as="geometry" />
        </mxCell>
        <mxCell id="DzbCIcEiqelJBFmlbiZg-4" value="" style="endArrow=classic;html=1;fontSize=15;" edge="1" parent="DzbCIcEiqelJBFmlbiZg-1">
          <mxGeometry width="50" height="50" relative="1" as="geometry">
            <mxPoint x="330" y="335" as="sourcePoint" />
            <mxPoint x="540" y="335" as="targetPoint" />
          </mxGeometry>
        </mxCell>
        <mxCell id="DzbCIcEiqelJBFmlbiZg-5" value="{ email: &#39;test@test.com&#39;, password: &#39;wordpass&#39;" style="rounded=0;whiteSpace=wrap;html=1;fontSize=15;fillColor=#dae8fc;strokeColor=#6c8ebf;" vertex="1" parent="DzbCIcEiqelJBFmlbiZg-1">
          <mxGeometry x="340" y="295" width="180" height="40" as="geometry" />
        </mxCell>
        <mxCell id="DzbCIcEiqelJBFmlbiZg-6" value="&lt;b&gt;SIGNIN&lt;/b&gt;" style="rounded=0;whiteSpace=wrap;html=1;fontSize=15;fillColor=#dae8fc;strokeColor=#6c8ebf;" vertex="1" parent="DzbCIcEiqelJBFmlbiZg-1">
          <mxGeometry x="340" y="270" width="180" height="25" as="geometry" />
        </mxCell>
        <mxCell id="DzbCIcEiqelJBFmlbiZg-7" value="" style="rounded=0;whiteSpace=wrap;html=1;fontSize=13;fillColor=#e1d5e7;strokeColor=#9673a6;" vertex="1" parent="DzbCIcEiqelJBFmlbiZg-1">
          <mxGeometry x="800" y="210" width="230" height="230" as="geometry" />
        </mxCell>
        <mxCell id="DzbCIcEiqelJBFmlbiZg-8" value="&lt;span style=&quot;color: rgb(51 , 51 , 51) ; font-size: 19px&quot;&gt;MongoDB&lt;/span&gt;" style="rounded=0;whiteSpace=wrap;html=1;fontSize=13;fillColor=#e1d5e7;strokeColor=#9673a6;fontStyle=1" vertex="1" parent="DzbCIcEiqelJBFmlbiZg-1">
          <mxGeometry x="800" y="210" width="230" height="35" as="geometry" />
        </mxCell>
        <mxCell id="DzbCIcEiqelJBFmlbiZg-9" value="" style="rounded=0;whiteSpace=wrap;html=1;fontSize=13;" vertex="1" parent="DzbCIcEiqelJBFmlbiZg-1">
          <mxGeometry x="820" y="305" width="200" height="100" as="geometry" />
        </mxCell>
        <mxCell id="DzbCIcEiqelJBFmlbiZg-11" value="React App" style="rounded=0;whiteSpace=wrap;html=1;fontSize=22;fillColor=#ffe6cc;strokeColor=#d79b00;fontStyle=1" vertex="1" parent="DzbCIcEiqelJBFmlbiZg-1">
          <mxGeometry x="170" y="315" width="160" height="80" as="geometry" />
        </mxCell>
        <mxCell id="DzbCIcEiqelJBFmlbiZg-12" style="edgeStyle=orthogonalEdgeStyle;rounded=0;orthogonalLoop=1;jettySize=auto;html=1;exitX=0.5;exitY=1;exitDx=0;exitDy=0;entryX=0.5;entryY=0;entryDx=0;entryDy=0;fontSize=24;" edge="1" parent="DzbCIcEiqelJBFmlbiZg-1" source="DzbCIcEiqelJBFmlbiZg-13" target="DzbCIcEiqelJBFmlbiZg-17">
          <mxGeometry relative="1" as="geometry" />
        </mxCell>
        <mxCell id="DzbCIcEiqelJBFmlbiZg-13" value="Hash password of &#39;wordpass&#39;" style="rounded=0;whiteSpace=wrap;html=1;fontSize=13;" vertex="1" parent="DzbCIcEiqelJBFmlbiZg-1">
          <mxGeometry x="550" y="265" width="180" height="45" as="geometry" />
        </mxCell>
        <mxCell id="DzbCIcEiqelJBFmlbiZg-14" value="{ email: &#39;test@test.com&#39;, password: &#39;&lt;span style=&quot;font-size: 13px&quot;&gt;&lt;b&gt;lkjsdlkj23lk5jl2l&lt;/b&gt;&lt;/span&gt;&#39; }" style="rounded=0;whiteSpace=wrap;html=1;fontSize=12;fillColor=#d5e8d4;strokeColor=#82b366;" vertex="1" parent="DzbCIcEiqelJBFmlbiZg-1">
          <mxGeometry x="835" y="325" width="175" height="40" as="geometry" />
        </mxCell>
        <mxCell id="DzbCIcEiqelJBFmlbiZg-15" value="User Collection" style="rounded=0;whiteSpace=wrap;html=1;fontSize=13;" vertex="1" parent="DzbCIcEiqelJBFmlbiZg-1">
          <mxGeometry x="820" y="270" width="200" height="35" as="geometry" />
        </mxCell>
        <mxCell id="DzbCIcEiqelJBFmlbiZg-21" style="edgeStyle=orthogonalEdgeStyle;rounded=0;orthogonalLoop=1;jettySize=auto;html=1;exitX=0.5;exitY=1;exitDx=0;exitDy=0;entryX=0.5;entryY=0;entryDx=0;entryDy=0;fontSize=24;" edge="1" parent="DzbCIcEiqelJBFmlbiZg-1" source="DzbCIcEiqelJBFmlbiZg-17" target="DzbCIcEiqelJBFmlbiZg-20">
          <mxGeometry relative="1" as="geometry" />
        </mxCell>
        <mxCell id="DzbCIcEiqelJBFmlbiZg-17" value="&#39;lkjsdlkj23lk5jl2l&#39;" style="rounded=0;whiteSpace=wrap;html=1;fontSize=13;" vertex="1" parent="DzbCIcEiqelJBFmlbiZg-1">
          <mxGeometry x="550" y="325" width="180" height="40" as="geometry" />
        </mxCell>
        <mxCell id="DzbCIcEiqelJBFmlbiZg-23" style="edgeStyle=orthogonalEdgeStyle;rounded=0;orthogonalLoop=1;jettySize=auto;html=1;exitX=0.5;exitY=1;exitDx=0;exitDy=0;entryX=0.5;entryY=0;entryDx=0;entryDy=0;fontSize=24;" edge="1" parent="DzbCIcEiqelJBFmlbiZg-1" source="DzbCIcEiqelJBFmlbiZg-20" target="DzbCIcEiqelJBFmlbiZg-22">
          <mxGeometry relative="1" as="geometry" />
        </mxCell>
        <mxCell id="DzbCIcEiqelJBFmlbiZg-24" style="edgeStyle=orthogonalEdgeStyle;rounded=0;orthogonalLoop=1;jettySize=auto;html=1;exitX=1;exitY=0.5;exitDx=0;exitDy=0;entryX=0;entryY=0.5;entryDx=0;entryDy=0;fontSize=24;" edge="1" parent="DzbCIcEiqelJBFmlbiZg-1" source="DzbCIcEiqelJBFmlbiZg-20" target="DzbCIcEiqelJBFmlbiZg-14">
          <mxGeometry relative="1" as="geometry" />
        </mxCell>
        <mxCell id="DzbCIcEiqelJBFmlbiZg-20" value="Find user in database with email of &#39;test@test.com&#39;" style="rounded=0;whiteSpace=wrap;html=1;fontSize=13;" vertex="1" parent="DzbCIcEiqelJBFmlbiZg-1">
          <mxGeometry x="550" y="380" width="180" height="40" as="geometry" />
        </mxCell>
        <mxCell id="DzbCIcEiqelJBFmlbiZg-22" value="Is the hashed password that was just supplied equal to the on that is stored in the DB?" style="rounded=0;whiteSpace=wrap;html=1;fontSize=13;" vertex="1" parent="DzbCIcEiqelJBFmlbiZg-1">
          <mxGeometry x="550" y="440" width="180" height="50" as="geometry" />
        </mxCell>
      </root>
    </mxGraphModel>
  </diagram>
  <diagram id="DRfGa19pMyQ0fCZ6GRwt" name="11 - auth">
    <mxGraphModel dx="715" dy="352" grid="1" gridSize="10" guides="1" tooltips="1" connect="1" arrows="1" fold="1" page="1" pageScale="1" pageWidth="1920" pageHeight="1200" math="0" shadow="0">
      <root>
        <mxCell id="cbB2IgddIYG2Zezy0tDo-0" />
        <mxCell id="cbB2IgddIYG2Zezy0tDo-1" parent="cbB2IgddIYG2Zezy0tDo-0" />
        <mxCell id="cbB2IgddIYG2Zezy0tDo-2" value="User auth with microservices is an &lt;i style=&quot;font-size: 21px;&quot;&gt;unsolved problem&lt;/i&gt;" style="rounded=0;whiteSpace=wrap;html=1;fontSize=21;fillColor=#dae8fc;strokeColor=#6c8ebf;" vertex="1" parent="cbB2IgddIYG2Zezy0tDo-1">
          <mxGeometry x="730" y="250" width="560" height="70" as="geometry" />
        </mxCell>
        <mxCell id="cbB2IgddIYG2Zezy0tDo-4" value="There are many ways to do it, and no one way is &quot;right&quot;" style="rounded=0;whiteSpace=wrap;html=1;fontSize=21;fillColor=#dae8fc;strokeColor=#6c8ebf;" vertex="1" parent="cbB2IgddIYG2Zezy0tDo-1">
          <mxGeometry x="730" y="350" width="560" height="70" as="geometry" />
        </mxCell>
        <mxCell id="cbB2IgddIYG2Zezy0tDo-8" value="I am going to outline a couple solutions then propose a solution that &lt;i&gt;works, but still has downsides&lt;/i&gt;" style="rounded=0;whiteSpace=wrap;html=1;fontSize=21;fillColor=#dae8fc;strokeColor=#6c8ebf;" vertex="1" parent="cbB2IgddIYG2Zezy0tDo-1">
          <mxGeometry x="730" y="460" width="560" height="70" as="geometry" />
        </mxCell>
        <mxCell id="cbB2IgddIYG2Zezy0tDo-5" style="edgeStyle=orthogonalEdgeStyle;rounded=0;orthogonalLoop=1;jettySize=auto;html=1;exitX=0.5;exitY=1;exitDx=0;exitDy=0;fontSize=21;" edge="1" parent="cbB2IgddIYG2Zezy0tDo-1" source="cbB2IgddIYG2Zezy0tDo-2" target="cbB2IgddIYG2Zezy0tDo-4">
          <mxGeometry relative="1" as="geometry" />
        </mxCell>
        <mxCell id="cbB2IgddIYG2Zezy0tDo-9" style="edgeStyle=orthogonalEdgeStyle;rounded=0;orthogonalLoop=1;jettySize=auto;html=1;exitX=0.5;exitY=1;exitDx=0;exitDy=0;fontSize=21;" edge="1" parent="cbB2IgddIYG2Zezy0tDo-1" source="cbB2IgddIYG2Zezy0tDo-4" target="cbB2IgddIYG2Zezy0tDo-8">
          <mxGeometry relative="1" as="geometry" />
        </mxCell>
      </root>
    </mxGraphModel>
  </diagram>
  <diagram id="1l1tt2HGPO3kAbY2cU7q" name="12 - payments">
    <mxGraphModel dx="858" dy="422" grid="1" gridSize="10" guides="1" tooltips="1" connect="1" arrows="1" fold="1" page="1" pageScale="1" pageWidth="1920" pageHeight="1200" math="0" shadow="0">
      <root>
        <mxCell id="n-ANQqQQHdGHf2qQmgIK-0" />
        <mxCell id="n-ANQqQQHdGHf2qQmgIK-1" parent="n-ANQqQQHdGHf2qQmgIK-0" />
        <mxCell id="DXVjNJ6nkupUL_VOIFBR-1" value="" style="rounded=0;whiteSpace=wrap;html=1;fillColor=#f5f5f5;strokeColor=#666666;fontColor=#333333;fontStyle=1;fontSize=19;" vertex="1" parent="n-ANQqQQHdGHf2qQmgIK-1">
          <mxGeometry x="640" y="305" width="280" height="245" as="geometry" />
        </mxCell>
        <mxCell id="DXVjNJ6nkupUL_VOIFBR-11" style="edgeStyle=orthogonalEdgeStyle;rounded=0;orthogonalLoop=1;jettySize=auto;html=1;exitX=1;exitY=0.5;exitDx=0;exitDy=0;fontSize=16;" edge="1" parent="n-ANQqQQHdGHf2qQmgIK-1" source="VGuSiYpST93SBDr0r3Mc-0" target="DXVjNJ6nkupUL_VOIFBR-4">
          <mxGeometry relative="1" as="geometry" />
        </mxCell>
        <mxCell id="VGuSiYpST93SBDr0r3Mc-0" value="{ ticketId: &#39;123123&#39; }" style="rounded=0;whiteSpace=wrap;html=1;fontSize=15;fillColor=#dae8fc;strokeColor=#6c8ebf;" vertex="1" parent="n-ANQqQQHdGHf2qQmgIK-1">
          <mxGeometry x="340" y="312.5" width="230" height="45" as="geometry" />
        </mxCell>
        <mxCell id="VGuSiYpST93SBDr0r3Mc-1" value="&lt;b&gt;Request to Purchase Ticket&lt;/b&gt;" style="rounded=0;whiteSpace=wrap;html=1;fontSize=15;fillColor=#dae8fc;strokeColor=#6c8ebf;" vertex="1" parent="n-ANQqQQHdGHf2qQmgIK-1">
          <mxGeometry x="340" y="287.5" width="230" height="25" as="geometry" />
        </mxCell>
        <mxCell id="VGuSiYpST93SBDr0r3Mc-2" value="JWT, Cookie, ETC" style="rounded=0;whiteSpace=wrap;html=1;fontSize=15;fillColor=#dae8fc;strokeColor=#6c8ebf;fontStyle=1" vertex="1" parent="n-ANQqQQHdGHf2qQmgIK-1">
          <mxGeometry x="340" y="357.5" width="230" height="45" as="geometry" />
        </mxCell>
        <mxCell id="DXVjNJ6nkupUL_VOIFBR-0" value="Orders Service" style="rounded=0;whiteSpace=wrap;html=1;fillColor=#f5f5f5;strokeColor=#666666;fontColor=#333333;fontStyle=1;fontSize=19;" vertex="1" parent="n-ANQqQQHdGHf2qQmgIK-1">
          <mxGeometry x="640" y="270" width="280" height="35" as="geometry" />
        </mxCell>
        <mxCell id="DXVjNJ6nkupUL_VOIFBR-4" value="&lt;b style=&quot;font-size: 16px;&quot;&gt;Ticket Purchase Logic&lt;/b&gt;" style="rounded=0;whiteSpace=wrap;html=1;fontSize=16;" vertex="1" parent="n-ANQqQQHdGHf2qQmgIK-1">
          <mxGeometry x="660" y="320" width="240" height="30" as="geometry" />
        </mxCell>
        <mxCell id="DXVjNJ6nkupUL_VOIFBR-5" value="" style="rounded=0;whiteSpace=wrap;html=1;fontSize=16;" vertex="1" parent="n-ANQqQQHdGHf2qQmgIK-1">
          <mxGeometry x="660" y="350" width="240" height="190" as="geometry" />
        </mxCell>
        <mxCell id="DXVjNJ6nkupUL_VOIFBR-8" style="edgeStyle=orthogonalEdgeStyle;rounded=0;orthogonalLoop=1;jettySize=auto;html=1;exitX=0.5;exitY=1;exitDx=0;exitDy=0;entryX=0.5;entryY=0;entryDx=0;entryDy=0;fontSize=16;" edge="1" parent="n-ANQqQQHdGHf2qQmgIK-1" source="DXVjNJ6nkupUL_VOIFBR-6" target="DXVjNJ6nkupUL_VOIFBR-7">
          <mxGeometry relative="1" as="geometry" />
        </mxCell>
        <mxCell id="DXVjNJ6nkupUL_VOIFBR-6" value="Is this person logged in?" style="rounded=0;whiteSpace=wrap;html=1;fontSize=16;fillColor=#e1d5e7;strokeColor=#9673a6;" vertex="1" parent="n-ANQqQQHdGHf2qQmgIK-1">
          <mxGeometry x="685" y="362.5" width="190" height="40" as="geometry" />
        </mxCell>
        <mxCell id="DXVjNJ6nkupUL_VOIFBR-10" style="edgeStyle=orthogonalEdgeStyle;rounded=0;orthogonalLoop=1;jettySize=auto;html=1;exitX=0.5;exitY=1;exitDx=0;exitDy=0;fontSize=16;" edge="1" parent="n-ANQqQQHdGHf2qQmgIK-1" source="DXVjNJ6nkupUL_VOIFBR-7" target="DXVjNJ6nkupUL_VOIFBR-9">
          <mxGeometry relative="1" as="geometry" />
        </mxCell>
        <mxCell id="DXVjNJ6nkupUL_VOIFBR-7" value="Yes? Ok, can they purchase this ticket?" style="rounded=0;whiteSpace=wrap;html=1;fontSize=16;fillColor=#e1d5e7;strokeColor=#9673a6;" vertex="1" parent="n-ANQqQQHdGHf2qQmgIK-1">
          <mxGeometry x="685" y="420" width="190" height="40" as="geometry" />
        </mxCell>
        <mxCell id="DXVjNJ6nkupUL_VOIFBR-9" value="........" style="rounded=0;whiteSpace=wrap;html=1;fontSize=16;fillColor=#e1d5e7;strokeColor=#9673a6;" vertex="1" parent="n-ANQqQQHdGHf2qQmgIK-1">
          <mxGeometry x="685" y="480" width="190" height="40" as="geometry" />
        </mxCell>
      </root>
    </mxGraphModel>
  </diagram>
  <diagram name="14 - two" id="A7_8-GsvR8zuX3lu-hGB">
    <mxGraphModel dx="910" dy="448" grid="1" gridSize="10" guides="1" tooltips="1" connect="1" arrows="1" fold="1" page="1" pageScale="1" pageWidth="1920" pageHeight="1200" math="0" shadow="0">
      <root>
        <mxCell id="PQEAgt4ZyjOoXot4PxmH-0" />
        <mxCell id="PQEAgt4ZyjOoXot4PxmH-1" parent="PQEAgt4ZyjOoXot4PxmH-0" />
        <mxCell id="PQEAgt4ZyjOoXot4PxmH-2" value="" style="rounded=0;whiteSpace=wrap;html=1;fillColor=#f5f5f5;strokeColor=#666666;fontColor=#333333;fontStyle=1;fontSize=19;" vertex="1" parent="PQEAgt4ZyjOoXot4PxmH-1">
          <mxGeometry x="640" y="305" width="280" height="245" as="geometry" />
        </mxCell>
        <mxCell id="PQEAgt4ZyjOoXot4PxmH-3" style="edgeStyle=orthogonalEdgeStyle;rounded=0;orthogonalLoop=1;jettySize=auto;html=1;exitX=1;exitY=0.5;exitDx=0;exitDy=0;fontSize=16;" edge="1" parent="PQEAgt4ZyjOoXot4PxmH-1" source="PQEAgt4ZyjOoXot4PxmH-4" target="PQEAgt4ZyjOoXot4PxmH-8">
          <mxGeometry relative="1" as="geometry" />
        </mxCell>
        <mxCell id="PQEAgt4ZyjOoXot4PxmH-4" value="{ ticketId: &#39;123123&#39; }" style="rounded=0;whiteSpace=wrap;html=1;fontSize=15;fillColor=#dae8fc;strokeColor=#6c8ebf;" vertex="1" parent="PQEAgt4ZyjOoXot4PxmH-1">
          <mxGeometry x="340" y="312.5" width="230" height="45" as="geometry" />
        </mxCell>
        <mxCell id="PQEAgt4ZyjOoXot4PxmH-5" value="&lt;b&gt;Request to Purchase Ticket&lt;/b&gt;" style="rounded=0;whiteSpace=wrap;html=1;fontSize=15;fillColor=#dae8fc;strokeColor=#6c8ebf;" vertex="1" parent="PQEAgt4ZyjOoXot4PxmH-1">
          <mxGeometry x="340" y="287.5" width="230" height="25" as="geometry" />
        </mxCell>
        <mxCell id="PQEAgt4ZyjOoXot4PxmH-6" value="JWT, Cookie, ETC" style="rounded=0;whiteSpace=wrap;html=1;fontSize=15;fillColor=#dae8fc;strokeColor=#6c8ebf;fontStyle=1" vertex="1" parent="PQEAgt4ZyjOoXot4PxmH-1">
          <mxGeometry x="340" y="357.5" width="230" height="45" as="geometry" />
        </mxCell>
        <mxCell id="PQEAgt4ZyjOoXot4PxmH-7" value="Orders Service" style="rounded=0;whiteSpace=wrap;html=1;fillColor=#f5f5f5;strokeColor=#666666;fontColor=#333333;fontStyle=1;fontSize=19;" vertex="1" parent="PQEAgt4ZyjOoXot4PxmH-1">
          <mxGeometry x="640" y="270" width="280" height="35" as="geometry" />
        </mxCell>
        <mxCell id="PQEAgt4ZyjOoXot4PxmH-8" value="&lt;b style=&quot;font-size: 16px;&quot;&gt;Ticket Purchase Logic&lt;/b&gt;" style="rounded=0;whiteSpace=wrap;html=1;fontSize=16;" vertex="1" parent="PQEAgt4ZyjOoXot4PxmH-1">
          <mxGeometry x="660" y="320" width="240" height="30" as="geometry" />
        </mxCell>
        <mxCell id="PQEAgt4ZyjOoXot4PxmH-9" value="" style="rounded=0;whiteSpace=wrap;html=1;fontSize=16;" vertex="1" parent="PQEAgt4ZyjOoXot4PxmH-1">
          <mxGeometry x="660" y="350" width="240" height="190" as="geometry" />
        </mxCell>
        <mxCell id="PQEAgt4ZyjOoXot4PxmH-10" style="edgeStyle=orthogonalEdgeStyle;rounded=0;orthogonalLoop=1;jettySize=auto;html=1;exitX=0.5;exitY=1;exitDx=0;exitDy=0;entryX=0.5;entryY=0;entryDx=0;entryDy=0;fontSize=16;" edge="1" parent="PQEAgt4ZyjOoXot4PxmH-1" source="PQEAgt4ZyjOoXot4PxmH-12" target="PQEAgt4ZyjOoXot4PxmH-14">
          <mxGeometry relative="1" as="geometry" />
        </mxCell>
        <mxCell id="PQEAgt4ZyjOoXot4PxmH-12" value="Is this person logged in?" style="rounded=0;whiteSpace=wrap;html=1;fontSize=16;fillColor=#e1d5e7;strokeColor=#9673a6;" vertex="1" parent="PQEAgt4ZyjOoXot4PxmH-1">
          <mxGeometry x="685" y="362.5" width="190" height="40" as="geometry" />
        </mxCell>
        <mxCell id="PQEAgt4ZyjOoXot4PxmH-13" style="edgeStyle=orthogonalEdgeStyle;rounded=0;orthogonalLoop=1;jettySize=auto;html=1;exitX=0.5;exitY=1;exitDx=0;exitDy=0;fontSize=16;" edge="1" parent="PQEAgt4ZyjOoXot4PxmH-1" source="PQEAgt4ZyjOoXot4PxmH-14" target="PQEAgt4ZyjOoXot4PxmH-15">
          <mxGeometry relative="1" as="geometry" />
        </mxCell>
        <mxCell id="PQEAgt4ZyjOoXot4PxmH-14" value="Yes? Ok, can they purchase this ticket?" style="rounded=0;whiteSpace=wrap;html=1;fontSize=16;fillColor=#e1d5e7;strokeColor=#9673a6;" vertex="1" parent="PQEAgt4ZyjOoXot4PxmH-1">
          <mxGeometry x="685" y="420" width="190" height="40" as="geometry" />
        </mxCell>
        <mxCell id="PQEAgt4ZyjOoXot4PxmH-15" value="........" style="rounded=0;whiteSpace=wrap;html=1;fontSize=16;fillColor=#e1d5e7;strokeColor=#9673a6;" vertex="1" parent="PQEAgt4ZyjOoXot4PxmH-1">
          <mxGeometry x="685" y="480" width="190" height="40" as="geometry" />
        </mxCell>
        <mxCell id="PQEAgt4ZyjOoXot4PxmH-16" value="Fundamental Option #1" style="text;html=1;strokeColor=none;fillColor=none;align=center;verticalAlign=middle;whiteSpace=wrap;rounded=0;fontSize=24;fontStyle=5;shadow=0;labelBorderColor=none;labelBackgroundColor=none;" vertex="1" parent="PQEAgt4ZyjOoXot4PxmH-1">
          <mxGeometry x="590" y="180" width="380" height="20" as="geometry" />
        </mxCell>
        <mxCell id="PQEAgt4ZyjOoXot4PxmH-18" value="Individual services rely on the auth service" style="text;html=1;strokeColor=none;fillColor=none;align=center;verticalAlign=middle;whiteSpace=wrap;rounded=0;shadow=0;labelBackgroundColor=none;fontSize=18;fontStyle=2" vertex="1" parent="PQEAgt4ZyjOoXot4PxmH-1">
          <mxGeometry x="665" y="217" width="230" height="20" as="geometry" />
        </mxCell>
        <mxCell id="PQEAgt4ZyjOoXot4PxmH-19" value="Auth Service" style="rounded=0;whiteSpace=wrap;html=1;fillColor=#f5f5f5;strokeColor=#666666;fontColor=#333333;fontStyle=1;fontSize=19;" vertex="1" parent="PQEAgt4ZyjOoXot4PxmH-1">
          <mxGeometry x="1050" y="270" width="190" height="35" as="geometry" />
        </mxCell>
        <mxCell id="PQEAgt4ZyjOoXot4PxmH-20" value="" style="rounded=0;whiteSpace=wrap;html=1;fillColor=#f5f5f5;strokeColor=#666666;fontColor=#333333;fontStyle=1;fontSize=19;" vertex="1" parent="PQEAgt4ZyjOoXot4PxmH-1">
          <mxGeometry x="1050" y="305" width="190" height="175" as="geometry" />
        </mxCell>
        <mxCell id="PQEAgt4ZyjOoXot4PxmH-17" value="Logic to inspect JWT/Cookie and decide if user is authenticated" style="rounded=0;whiteSpace=wrap;html=1;shadow=0;labelBackgroundColor=none;fontSize=18;fillColor=#d5e8d4;strokeColor=#82b366;" vertex="1" parent="PQEAgt4ZyjOoXot4PxmH-1">
          <mxGeometry x="1070" y="320" width="150" height="140" as="geometry" />
        </mxCell>
        <mxCell id="PQEAgt4ZyjOoXot4PxmH-21" style="edgeStyle=orthogonalEdgeStyle;rounded=0;orthogonalLoop=1;jettySize=auto;html=1;exitX=1;exitY=0.5;exitDx=0;exitDy=0;fontSize=18;" edge="1" parent="PQEAgt4ZyjOoXot4PxmH-1" source="PQEAgt4ZyjOoXot4PxmH-12" target="PQEAgt4ZyjOoXot4PxmH-17">
          <mxGeometry relative="1" as="geometry" />
        </mxCell>
        <mxCell id="PQEAgt4ZyjOoXot4PxmH-22" value="Sync Request" style="rounded=0;whiteSpace=wrap;html=1;shadow=0;labelBackgroundColor=none;fontSize=12;fillColor=#f8cecc;strokeColor=#b85450;fontStyle=2" vertex="1" parent="PQEAgt4ZyjOoXot4PxmH-1">
          <mxGeometry x="940" y="393" width="90" height="20" as="geometry" />
        </mxCell>
      </root>
    </mxGraphModel>
  </diagram>
  <diagram name="15 - 1.5" id="Y4mtEu6fDAki3awMIh6D">
    <mxGraphModel dx="858" dy="422" grid="1" gridSize="10" guides="1" tooltips="1" connect="1" arrows="1" fold="1" page="1" pageScale="1" pageWidth="1920" pageHeight="1200" math="0" shadow="0">
      <root>
        <mxCell id="boai1MdxNWR64raod1lr-0" />
        <mxCell id="boai1MdxNWR64raod1lr-1" parent="boai1MdxNWR64raod1lr-0" />
        <mxCell id="boai1MdxNWR64raod1lr-2" value="" style="rounded=0;whiteSpace=wrap;html=1;fillColor=#f5f5f5;strokeColor=#666666;fontColor=#333333;fontStyle=1;fontSize=19;" vertex="1" parent="boai1MdxNWR64raod1lr-1">
          <mxGeometry x="940" y="305" width="280" height="245" as="geometry" />
        </mxCell>
        <mxCell id="boai1MdxNWR64raod1lr-25" style="edgeStyle=orthogonalEdgeStyle;rounded=0;orthogonalLoop=1;jettySize=auto;html=1;exitX=1;exitY=0.5;exitDx=0;exitDy=0;entryX=0;entryY=0.25;entryDx=0;entryDy=0;fontSize=21;" edge="1" parent="boai1MdxNWR64raod1lr-1" source="boai1MdxNWR64raod1lr-4" target="boai1MdxNWR64raod1lr-18">
          <mxGeometry relative="1" as="geometry" />
        </mxCell>
        <mxCell id="boai1MdxNWR64raod1lr-4" value="{ ticketId: &#39;123123&#39; }" style="rounded=0;whiteSpace=wrap;html=1;fontSize=15;fillColor=#dae8fc;strokeColor=#6c8ebf;" vertex="1" parent="boai1MdxNWR64raod1lr-1">
          <mxGeometry x="370" y="295" width="230" height="45" as="geometry" />
        </mxCell>
        <mxCell id="boai1MdxNWR64raod1lr-5" value="&lt;b&gt;Request to Purchase Ticket&lt;/b&gt;" style="rounded=0;whiteSpace=wrap;html=1;fontSize=15;fillColor=#dae8fc;strokeColor=#6c8ebf;" vertex="1" parent="boai1MdxNWR64raod1lr-1">
          <mxGeometry x="370" y="270" width="230" height="25" as="geometry" />
        </mxCell>
        <mxCell id="boai1MdxNWR64raod1lr-6" value="JWT, Cookie, ETC" style="rounded=0;whiteSpace=wrap;html=1;fontSize=15;fillColor=#dae8fc;strokeColor=#6c8ebf;fontStyle=1" vertex="1" parent="boai1MdxNWR64raod1lr-1">
          <mxGeometry x="370" y="340" width="230" height="45" as="geometry" />
        </mxCell>
        <mxCell id="boai1MdxNWR64raod1lr-7" value="Orders Service" style="rounded=0;whiteSpace=wrap;html=1;fillColor=#f5f5f5;strokeColor=#666666;fontColor=#333333;fontStyle=1;fontSize=19;" vertex="1" parent="boai1MdxNWR64raod1lr-1">
          <mxGeometry x="940" y="270" width="280" height="35" as="geometry" />
        </mxCell>
        <mxCell id="boai1MdxNWR64raod1lr-8" value="&lt;b style=&quot;font-size: 16px;&quot;&gt;Ticket Purchase Logic&lt;/b&gt;" style="rounded=0;whiteSpace=wrap;html=1;fontSize=16;" vertex="1" parent="boai1MdxNWR64raod1lr-1">
          <mxGeometry x="960" y="320" width="240" height="30" as="geometry" />
        </mxCell>
        <mxCell id="boai1MdxNWR64raod1lr-9" value="" style="rounded=0;whiteSpace=wrap;html=1;fontSize=16;" vertex="1" parent="boai1MdxNWR64raod1lr-1">
          <mxGeometry x="960" y="350" width="240" height="190" as="geometry" />
        </mxCell>
        <mxCell id="boai1MdxNWR64raod1lr-10" style="edgeStyle=orthogonalEdgeStyle;rounded=0;orthogonalLoop=1;jettySize=auto;html=1;exitX=0.5;exitY=1;exitDx=0;exitDy=0;entryX=0.5;entryY=0;entryDx=0;entryDy=0;fontSize=16;" edge="1" parent="boai1MdxNWR64raod1lr-1" source="boai1MdxNWR64raod1lr-11" target="boai1MdxNWR64raod1lr-13">
          <mxGeometry relative="1" as="geometry" />
        </mxCell>
        <mxCell id="boai1MdxNWR64raod1lr-11" value="Is this person logged in?" style="rounded=0;whiteSpace=wrap;html=1;fontSize=16;fillColor=#e1d5e7;strokeColor=#9673a6;" vertex="1" parent="boai1MdxNWR64raod1lr-1">
          <mxGeometry x="985" y="362.5" width="190" height="40" as="geometry" />
        </mxCell>
        <mxCell id="boai1MdxNWR64raod1lr-12" style="edgeStyle=orthogonalEdgeStyle;rounded=0;orthogonalLoop=1;jettySize=auto;html=1;exitX=0.5;exitY=1;exitDx=0;exitDy=0;fontSize=16;" edge="1" parent="boai1MdxNWR64raod1lr-1" source="boai1MdxNWR64raod1lr-13" target="boai1MdxNWR64raod1lr-14">
          <mxGeometry relative="1" as="geometry" />
        </mxCell>
        <mxCell id="boai1MdxNWR64raod1lr-13" value="Yes? Ok, can they purchase this ticket?" style="rounded=0;whiteSpace=wrap;html=1;fontSize=16;fillColor=#e1d5e7;strokeColor=#9673a6;" vertex="1" parent="boai1MdxNWR64raod1lr-1">
          <mxGeometry x="985" y="420" width="190" height="40" as="geometry" />
        </mxCell>
        <mxCell id="boai1MdxNWR64raod1lr-14" value="........" style="rounded=0;whiteSpace=wrap;html=1;fontSize=16;fillColor=#e1d5e7;strokeColor=#9673a6;" vertex="1" parent="boai1MdxNWR64raod1lr-1">
          <mxGeometry x="985" y="480" width="190" height="40" as="geometry" />
        </mxCell>
        <mxCell id="boai1MdxNWR64raod1lr-15" value="Fundamental Option #1.1" style="text;html=1;strokeColor=none;fillColor=none;align=center;verticalAlign=middle;whiteSpace=wrap;rounded=0;fontSize=24;fontStyle=5;shadow=0;labelBorderColor=none;labelBackgroundColor=none;" vertex="1" parent="boai1MdxNWR64raod1lr-1">
          <mxGeometry x="590" y="170" width="380" height="20" as="geometry" />
        </mxCell>
        <mxCell id="boai1MdxNWR64raod1lr-16" value="Individual services rely on the auth service as a gateway" style="text;html=1;strokeColor=none;fillColor=none;align=center;verticalAlign=middle;whiteSpace=wrap;rounded=0;shadow=0;labelBackgroundColor=none;fontSize=18;fontStyle=2" vertex="1" parent="boai1MdxNWR64raod1lr-1">
          <mxGeometry x="637.5" y="207" width="285" height="20" as="geometry" />
        </mxCell>
        <mxCell id="boai1MdxNWR64raod1lr-17" value="Auth Service" style="rounded=0;whiteSpace=wrap;html=1;fillColor=#f5f5f5;strokeColor=#666666;fontColor=#333333;fontStyle=1;fontSize=19;" vertex="1" parent="boai1MdxNWR64raod1lr-1">
          <mxGeometry x="670" y="270" width="190" height="35" as="geometry" />
        </mxCell>
        <mxCell id="boai1MdxNWR64raod1lr-26" style="edgeStyle=orthogonalEdgeStyle;rounded=0;orthogonalLoop=1;jettySize=auto;html=1;exitX=1;exitY=0.25;exitDx=0;exitDy=0;entryX=0;entryY=0.25;entryDx=0;entryDy=0;fontSize=21;" edge="1" parent="boai1MdxNWR64raod1lr-1" source="boai1MdxNWR64raod1lr-18" target="boai1MdxNWR64raod1lr-2">
          <mxGeometry relative="1" as="geometry" />
        </mxCell>
        <mxCell id="boai1MdxNWR64raod1lr-18" value="" style="rounded=0;whiteSpace=wrap;html=1;fillColor=#f5f5f5;strokeColor=#666666;fontColor=#333333;fontStyle=1;fontSize=19;" vertex="1" parent="boai1MdxNWR64raod1lr-1">
          <mxGeometry x="670" y="305" width="190" height="195" as="geometry" />
        </mxCell>
        <mxCell id="boai1MdxNWR64raod1lr-19" value="Logic to inspect JWT/Cookie and decide if user is authenticated, the send request along to intended destination" style="rounded=0;whiteSpace=wrap;html=1;shadow=0;labelBackgroundColor=none;fontSize=18;fillColor=#d5e8d4;strokeColor=#82b366;" vertex="1" parent="boai1MdxNWR64raod1lr-1">
          <mxGeometry x="690" y="320" width="150" height="160" as="geometry" />
        </mxCell>
      </root>
    </mxGraphModel>
  </diagram>
  <diagram name="13 - one" id="F0wnMbPH_f4hjP6BF7PV">
    <mxGraphModel dx="858" dy="422" grid="1" gridSize="10" guides="1" tooltips="1" connect="1" arrows="1" fold="1" page="1" pageScale="1" pageWidth="1920" pageHeight="1200" math="0" shadow="0">
      <root>
        <mxCell id="XbM8D7Y9ohxF-KWXSPkc-0" />
        <mxCell id="XbM8D7Y9ohxF-KWXSPkc-1" parent="XbM8D7Y9ohxF-KWXSPkc-0" />
        <mxCell id="XbM8D7Y9ohxF-KWXSPkc-2" value="" style="rounded=0;whiteSpace=wrap;html=1;fillColor=#f5f5f5;strokeColor=#666666;fontColor=#333333;fontStyle=1;fontSize=19;" vertex="1" parent="XbM8D7Y9ohxF-KWXSPkc-1">
          <mxGeometry x="640" y="305" width="460" height="245" as="geometry" />
        </mxCell>
        <mxCell id="XbM8D7Y9ohxF-KWXSPkc-3" style="edgeStyle=orthogonalEdgeStyle;rounded=0;orthogonalLoop=1;jettySize=auto;html=1;exitX=1;exitY=0.5;exitDx=0;exitDy=0;fontSize=16;" edge="1" parent="XbM8D7Y9ohxF-KWXSPkc-1" source="XbM8D7Y9ohxF-KWXSPkc-4" target="XbM8D7Y9ohxF-KWXSPkc-8">
          <mxGeometry relative="1" as="geometry" />
        </mxCell>
        <mxCell id="XbM8D7Y9ohxF-KWXSPkc-4" value="{ ticketId: &#39;123123&#39; }" style="rounded=0;whiteSpace=wrap;html=1;fontSize=15;fillColor=#dae8fc;strokeColor=#6c8ebf;" vertex="1" parent="XbM8D7Y9ohxF-KWXSPkc-1">
          <mxGeometry x="340" y="312.5" width="230" height="45" as="geometry" />
        </mxCell>
        <mxCell id="XbM8D7Y9ohxF-KWXSPkc-5" value="&lt;b&gt;Request to Purchase Ticket&lt;/b&gt;" style="rounded=0;whiteSpace=wrap;html=1;fontSize=15;fillColor=#dae8fc;strokeColor=#6c8ebf;" vertex="1" parent="XbM8D7Y9ohxF-KWXSPkc-1">
          <mxGeometry x="340" y="287.5" width="230" height="25" as="geometry" />
        </mxCell>
        <mxCell id="XbM8D7Y9ohxF-KWXSPkc-6" value="JWT, Cookie, ETC" style="rounded=0;whiteSpace=wrap;html=1;fontSize=15;fillColor=#dae8fc;strokeColor=#6c8ebf;fontStyle=1" vertex="1" parent="XbM8D7Y9ohxF-KWXSPkc-1">
          <mxGeometry x="340" y="357.5" width="230" height="45" as="geometry" />
        </mxCell>
        <mxCell id="XbM8D7Y9ohxF-KWXSPkc-7" value="Orders Service" style="rounded=0;whiteSpace=wrap;html=1;fillColor=#f5f5f5;strokeColor=#666666;fontColor=#333333;fontStyle=1;fontSize=19;" vertex="1" parent="XbM8D7Y9ohxF-KWXSPkc-1">
          <mxGeometry x="640" y="270" width="460" height="35" as="geometry" />
        </mxCell>
        <mxCell id="XbM8D7Y9ohxF-KWXSPkc-8" value="&lt;b style=&quot;font-size: 16px;&quot;&gt;Ticket Purchase Logic&lt;/b&gt;" style="rounded=0;whiteSpace=wrap;html=1;fontSize=16;" vertex="1" parent="XbM8D7Y9ohxF-KWXSPkc-1">
          <mxGeometry x="660" y="320" width="240" height="30" as="geometry" />
        </mxCell>
        <mxCell id="XbM8D7Y9ohxF-KWXSPkc-9" value="" style="rounded=0;whiteSpace=wrap;html=1;fontSize=16;" vertex="1" parent="XbM8D7Y9ohxF-KWXSPkc-1">
          <mxGeometry x="660" y="350" width="240" height="190" as="geometry" />
        </mxCell>
        <mxCell id="XbM8D7Y9ohxF-KWXSPkc-10" style="edgeStyle=orthogonalEdgeStyle;rounded=0;orthogonalLoop=1;jettySize=auto;html=1;exitX=0.5;exitY=1;exitDx=0;exitDy=0;entryX=0.5;entryY=0;entryDx=0;entryDy=0;fontSize=16;" edge="1" parent="XbM8D7Y9ohxF-KWXSPkc-1" source="XbM8D7Y9ohxF-KWXSPkc-11" target="XbM8D7Y9ohxF-KWXSPkc-13">
          <mxGeometry relative="1" as="geometry" />
        </mxCell>
        <mxCell id="XbM8D7Y9ohxF-KWXSPkc-19" style="edgeStyle=orthogonalEdgeStyle;rounded=0;orthogonalLoop=1;jettySize=auto;html=1;exitX=1;exitY=0.5;exitDx=0;exitDy=0;entryX=0;entryY=0.25;entryDx=0;entryDy=0;fontSize=18;" edge="1" parent="XbM8D7Y9ohxF-KWXSPkc-1" source="XbM8D7Y9ohxF-KWXSPkc-11" target="XbM8D7Y9ohxF-KWXSPkc-18">
          <mxGeometry relative="1" as="geometry" />
        </mxCell>
        <mxCell id="XbM8D7Y9ohxF-KWXSPkc-11" value="Is this person logged in?" style="rounded=0;whiteSpace=wrap;html=1;fontSize=16;fillColor=#e1d5e7;strokeColor=#9673a6;" vertex="1" parent="XbM8D7Y9ohxF-KWXSPkc-1">
          <mxGeometry x="685" y="362.5" width="190" height="40" as="geometry" />
        </mxCell>
        <mxCell id="XbM8D7Y9ohxF-KWXSPkc-12" style="edgeStyle=orthogonalEdgeStyle;rounded=0;orthogonalLoop=1;jettySize=auto;html=1;exitX=0.5;exitY=1;exitDx=0;exitDy=0;fontSize=16;" edge="1" parent="XbM8D7Y9ohxF-KWXSPkc-1" source="XbM8D7Y9ohxF-KWXSPkc-13" target="XbM8D7Y9ohxF-KWXSPkc-14">
          <mxGeometry relative="1" as="geometry" />
        </mxCell>
        <mxCell id="XbM8D7Y9ohxF-KWXSPkc-13" value="Yes? Ok, can they purchase this ticket?" style="rounded=0;whiteSpace=wrap;html=1;fontSize=16;fillColor=#e1d5e7;strokeColor=#9673a6;" vertex="1" parent="XbM8D7Y9ohxF-KWXSPkc-1">
          <mxGeometry x="685" y="420" width="190" height="40" as="geometry" />
        </mxCell>
        <mxCell id="XbM8D7Y9ohxF-KWXSPkc-14" value="........" style="rounded=0;whiteSpace=wrap;html=1;fontSize=16;fillColor=#e1d5e7;strokeColor=#9673a6;" vertex="1" parent="XbM8D7Y9ohxF-KWXSPkc-1">
          <mxGeometry x="685" y="480" width="190" height="40" as="geometry" />
        </mxCell>
        <mxCell id="XbM8D7Y9ohxF-KWXSPkc-17" value="Fundamental Option #2" style="text;html=1;strokeColor=none;fillColor=none;align=center;verticalAlign=middle;whiteSpace=wrap;rounded=0;fontSize=24;fontStyle=5;shadow=0;labelBorderColor=none;labelBackgroundColor=none;" vertex="1" parent="XbM8D7Y9ohxF-KWXSPkc-1">
          <mxGeometry x="560" y="180" width="380" height="20" as="geometry" />
        </mxCell>
        <mxCell id="XbM8D7Y9ohxF-KWXSPkc-18" value="Logic to inspect JWT/Cookie and decide if user is authenticated" style="rounded=0;whiteSpace=wrap;html=1;shadow=0;labelBackgroundColor=none;fontSize=18;fillColor=#d5e8d4;strokeColor=#82b366;" vertex="1" parent="XbM8D7Y9ohxF-KWXSPkc-1">
          <mxGeometry x="940" y="362.5" width="150" height="140" as="geometry" />
        </mxCell>
        <mxCell id="XbM8D7Y9ohxF-KWXSPkc-22" value="Individual services know how to authenticate a user" style="text;html=1;strokeColor=none;fillColor=none;align=center;verticalAlign=middle;whiteSpace=wrap;rounded=0;shadow=0;labelBackgroundColor=none;fontSize=18;fontStyle=2" vertex="1" parent="XbM8D7Y9ohxF-KWXSPkc-1">
          <mxGeometry x="635" y="217" width="230" height="20" as="geometry" />
        </mxCell>
      </root>
    </mxGraphModel>
  </diagram>
  <diagram id="0j9xlfs2m_ZRB4cI0i1W" name="15 - t">
    <mxGraphModel dx="858" dy="422" grid="1" gridSize="10" guides="1" tooltips="1" connect="1" arrows="1" fold="1" page="1" pageScale="1" pageWidth="1920" pageHeight="1200" math="0" shadow="0">
      <root>
        <mxCell id="e91qvMvENAPK3423DuZP-0" />
        <mxCell id="e91qvMvENAPK3423DuZP-1" parent="e91qvMvENAPK3423DuZP-0" />
        <mxCell id="NJOZ83jhsRYsYsuYFAHe-0" value="Auth Service" style="rounded=0;whiteSpace=wrap;html=1;fillColor=#f5f5f5;strokeColor=#666666;fontColor=#333333;fontStyle=1;fontSize=19;" vertex="1" parent="e91qvMvENAPK3423DuZP-1">
          <mxGeometry x="870" y="180" width="280" height="35" as="geometry" />
        </mxCell>
        <mxCell id="NJOZ83jhsRYsYsuYFAHe-1" value="" style="rounded=0;whiteSpace=wrap;html=1;fillColor=#f5f5f5;strokeColor=#666666;fontColor=#333333;fontStyle=1;fontSize=19;" vertex="1" parent="e91qvMvENAPK3423DuZP-1">
          <mxGeometry x="870" y="215" width="280" height="215" as="geometry" />
        </mxCell>
        <mxCell id="NJOZ83jhsRYsYsuYFAHe-2" value="Sign In Logic" style="rounded=0;whiteSpace=wrap;html=1;shadow=0;labelBackgroundColor=none;fontSize=18;fillColor=#d5e8d4;strokeColor=#82b366;fontStyle=1" vertex="1" parent="e91qvMvENAPK3423DuZP-1">
          <mxGeometry x="885" y="225" width="250" height="30" as="geometry" />
        </mxCell>
        <mxCell id="tsnh5FmgNo0d2q7bJcyM-0" value="{ email: &#39;...&#39;, password: &#39;...&#39; }" style="rounded=0;whiteSpace=wrap;html=1;fontSize=15;fillColor=#dae8fc;strokeColor=#6c8ebf;" vertex="1" parent="e91qvMvENAPK3423DuZP-1">
          <mxGeometry x="600" y="244" width="230" height="45" as="geometry" />
        </mxCell>
        <mxCell id="tsnh5FmgNo0d2q7bJcyM-1" value="&lt;b&gt;Request to Sign In&lt;/b&gt;" style="rounded=0;whiteSpace=wrap;html=1;fontSize=15;fillColor=#dae8fc;strokeColor=#6c8ebf;" vertex="1" parent="e91qvMvENAPK3423DuZP-1">
          <mxGeometry x="600" y="219" width="230" height="25" as="geometry" />
        </mxCell>
        <mxCell id="tsnh5FmgNo0d2q7bJcyM-3" value="" style="rounded=0;whiteSpace=wrap;html=1;shadow=0;labelBackgroundColor=none;fontSize=18;fillColor=#d5e8d4;strokeColor=#82b366;fontStyle=1" vertex="1" parent="e91qvMvENAPK3423DuZP-1">
          <mxGeometry x="885" y="255" width="250" height="155" as="geometry" />
        </mxCell>
        <mxCell id="tsnh5FmgNo0d2q7bJcyM-8" style="edgeStyle=orthogonalEdgeStyle;rounded=0;orthogonalLoop=1;jettySize=auto;html=1;exitX=0.5;exitY=1;exitDx=0;exitDy=0;fontSize=12;" edge="1" parent="e91qvMvENAPK3423DuZP-1" source="tsnh5FmgNo0d2q7bJcyM-6" target="tsnh5FmgNo0d2q7bJcyM-7">
          <mxGeometry relative="1" as="geometry" />
        </mxCell>
        <mxCell id="tsnh5FmgNo0d2q7bJcyM-6" value="Email good? Password good?" style="rounded=0;whiteSpace=wrap;html=1;shadow=0;labelBackgroundColor=none;fontSize=12;" vertex="1" parent="e91qvMvENAPK3423DuZP-1">
          <mxGeometry x="895" y="270" width="230" height="40" as="geometry" />
        </mxCell>
        <mxCell id="tsnh5FmgNo0d2q7bJcyM-7" value="Yes? Great. Here&#39;s a token to identify you.&amp;nbsp; Include it on all followup requests" style="rounded=0;whiteSpace=wrap;html=1;shadow=0;labelBackgroundColor=none;fontSize=12;" vertex="1" parent="e91qvMvENAPK3423DuZP-1">
          <mxGeometry x="895" y="330" width="230" height="40" as="geometry" />
        </mxCell>
        <mxCell id="tsnh5FmgNo0d2q7bJcyM-9" value="User ABC" style="rounded=0;whiteSpace=wrap;html=1;fontSize=24;fillColor=#ffe6cc;strokeColor=#d79b00;" vertex="1" parent="e91qvMvENAPK3423DuZP-1">
          <mxGeometry x="415" y="225" width="140" height="195" as="geometry" />
        </mxCell>
        <mxCell id="tsnh5FmgNo0d2q7bJcyM-12" value="" style="endArrow=classic;html=1;fontSize=24;" edge="1" parent="e91qvMvENAPK3423DuZP-1">
          <mxGeometry width="50" height="50" relative="1" as="geometry">
            <mxPoint x="555" y="289.71000000000004" as="sourcePoint" />
            <mxPoint x="895" y="289.71000000000004" as="targetPoint" />
          </mxGeometry>
        </mxCell>
        <mxCell id="tsnh5FmgNo0d2q7bJcyM-13" value="" style="endArrow=classic;html=1;fontSize=24;" edge="1" parent="e91qvMvENAPK3423DuZP-1">
          <mxGeometry width="50" height="50" relative="1" as="geometry">
            <mxPoint x="895" y="349.71000000000004" as="sourcePoint" />
            <mxPoint x="555" y="349.71000000000004" as="targetPoint" />
          </mxGeometry>
        </mxCell>
        <mxCell id="tsnh5FmgNo0d2q7bJcyM-14" value="JWT, Cookie, Whatever" style="rounded=0;whiteSpace=wrap;html=1;fontSize=15;fillColor=#dae8fc;strokeColor=#6c8ebf;" vertex="1" parent="e91qvMvENAPK3423DuZP-1">
          <mxGeometry x="600" y="350" width="230" height="45" as="geometry" />
        </mxCell>
      </root>
    </mxGraphModel>
  </diagram>
  <diagram name="16 - admin" id="4ZHK55HN857YFhclD4Ds">
    <mxGraphModel dx="939" dy="462" grid="1" gridSize="10" guides="1" tooltips="1" connect="1" arrows="1" fold="1" page="1" pageScale="1" pageWidth="1920" pageHeight="1200" math="0" shadow="0">
      <root>
        <mxCell id="Zat7ey9bTBxaaAtlkWpd-0" />
        <mxCell id="Zat7ey9bTBxaaAtlkWpd-1" parent="Zat7ey9bTBxaaAtlkWpd-0" />
        <mxCell id="Zat7ey9bTBxaaAtlkWpd-2" value="Auth Service" style="rounded=0;whiteSpace=wrap;html=1;fillColor=#f5f5f5;strokeColor=#666666;fontColor=#333333;fontStyle=1;fontSize=19;" vertex="1" parent="Zat7ey9bTBxaaAtlkWpd-1">
          <mxGeometry x="870" y="180" width="250" height="35" as="geometry" />
        </mxCell>
        <mxCell id="Zat7ey9bTBxaaAtlkWpd-3" value="" style="rounded=0;whiteSpace=wrap;html=1;fillColor=#f5f5f5;strokeColor=#666666;fontColor=#333333;fontStyle=1;fontSize=19;" vertex="1" parent="Zat7ey9bTBxaaAtlkWpd-1">
          <mxGeometry x="870" y="215" width="250" height="215" as="geometry" />
        </mxCell>
        <mxCell id="Zat7ey9bTBxaaAtlkWpd-4" value="User Management Logic" style="rounded=0;whiteSpace=wrap;html=1;shadow=0;labelBackgroundColor=none;fontSize=18;fillColor=#d5e8d4;strokeColor=#82b366;fontStyle=1" vertex="1" parent="Zat7ey9bTBxaaAtlkWpd-1">
          <mxGeometry x="885" y="225" width="225" height="30" as="geometry" />
        </mxCell>
        <mxCell id="Zat7ey9bTBxaaAtlkWpd-7" value="" style="rounded=0;whiteSpace=wrap;html=1;shadow=0;labelBackgroundColor=none;fontSize=18;fillColor=#d5e8d4;strokeColor=#82b366;fontStyle=1" vertex="1" parent="Zat7ey9bTBxaaAtlkWpd-1">
          <mxGeometry x="885" y="255" width="225" height="155" as="geometry" />
        </mxCell>
        <mxCell id="8IWhq0WDpTvN2A1MCIVX-0" style="edgeStyle=orthogonalEdgeStyle;rounded=0;orthogonalLoop=1;jettySize=auto;html=1;exitX=1;exitY=0.5;exitDx=0;exitDy=0;fontSize=21;" edge="1" parent="Zat7ey9bTBxaaAtlkWpd-1" source="Zat7ey9bTBxaaAtlkWpd-9" target="Y5VBPc35N76tvf689oYp-7">
          <mxGeometry relative="1" as="geometry" />
        </mxCell>
        <mxCell id="Zat7ey9bTBxaaAtlkWpd-9" value="Ban UserABC?&amp;nbsp; OK, I will update the database" style="rounded=0;whiteSpace=wrap;html=1;shadow=0;labelBackgroundColor=none;fontSize=15;" vertex="1" parent="Zat7ey9bTBxaaAtlkWpd-1">
          <mxGeometry x="916.25" y="275.75" width="162.5" height="77.5" as="geometry" />
        </mxCell>
        <mxCell id="Y5VBPc35N76tvf689oYp-0" value="{ id: &#39;UserABC&#39; }" style="rounded=0;whiteSpace=wrap;html=1;fontSize=15;fillColor=#dae8fc;strokeColor=#6c8ebf;" vertex="1" parent="Zat7ey9bTBxaaAtlkWpd-1">
          <mxGeometry x="700" y="264" width="140" height="45" as="geometry" />
        </mxCell>
        <mxCell id="Y5VBPc35N76tvf689oYp-1" value="&lt;b&gt;Request to BAN a User&lt;/b&gt;" style="rounded=0;whiteSpace=wrap;html=1;fontSize=15;fillColor=#dae8fc;strokeColor=#6c8ebf;" vertex="1" parent="Zat7ey9bTBxaaAtlkWpd-1">
          <mxGeometry x="700" y="219" width="140" height="45" as="geometry" />
        </mxCell>
        <mxCell id="Y5VBPc35N76tvf689oYp-2" value="Auth MongoDB" style="rounded=0;whiteSpace=wrap;html=1;fillColor=#f5f5f5;strokeColor=#666666;fontColor=#333333;fontStyle=1;fontSize=19;" vertex="1" parent="Zat7ey9bTBxaaAtlkWpd-1">
          <mxGeometry x="1180" y="180" width="280" height="35" as="geometry" />
        </mxCell>
        <mxCell id="Y5VBPc35N76tvf689oYp-3" value="" style="rounded=0;whiteSpace=wrap;html=1;fillColor=#f5f5f5;strokeColor=#666666;fontColor=#333333;fontStyle=1;fontSize=19;" vertex="1" parent="Zat7ey9bTBxaaAtlkWpd-1">
          <mxGeometry x="1180" y="215" width="280" height="215" as="geometry" />
        </mxCell>
        <mxCell id="Y5VBPc35N76tvf689oYp-7" value="{ id: &#39;UserABC&#39;, &lt;b&gt;hasAccess: false&lt;/b&gt; }" style="rounded=0;whiteSpace=wrap;html=1;shadow=0;labelBackgroundColor=none;fontSize=16;" vertex="1" parent="Zat7ey9bTBxaaAtlkWpd-1">
          <mxGeometry x="1195" y="244" width="250" height="77.5" as="geometry" />
        </mxCell>
        <mxCell id="Y5VBPc35N76tvf689oYp-8" value="" style="endArrow=classic;html=1;fontSize=16;" edge="1" parent="Zat7ey9bTBxaaAtlkWpd-1">
          <mxGeometry width="50" height="50" relative="1" as="geometry">
            <mxPoint x="557.5" y="310" as="sourcePoint" />
            <mxPoint x="917.5" y="310" as="targetPoint" />
          </mxGeometry>
        </mxCell>
        <mxCell id="Zat7ey9bTBxaaAtlkWpd-11" value="Admin User" style="rounded=0;whiteSpace=wrap;html=1;fontSize=24;fillColor=#ffe6cc;strokeColor=#d79b00;" vertex="1" parent="Zat7ey9bTBxaaAtlkWpd-1">
          <mxGeometry x="540" y="219" width="115" height="191" as="geometry" />
        </mxCell>
      </root>
    </mxGraphModel>
  </diagram>
  <diagram name="17 - result" id="DTG21idJJH9kHD555ARi">
    <mxGraphModel dx="1073" dy="528" grid="1" gridSize="10" guides="1" tooltips="1" connect="1" arrows="1" fold="1" page="1" pageScale="1" pageWidth="1920" pageHeight="1200" math="0" shadow="0">
      <root>
        <mxCell id="RrlbZwHQQJtH3pEjrHcR-0" />
        <mxCell id="RrlbZwHQQJtH3pEjrHcR-1" parent="RrlbZwHQQJtH3pEjrHcR-0" />
        <mxCell id="RrlbZwHQQJtH3pEjrHcR-2" value="" style="rounded=0;whiteSpace=wrap;html=1;fillColor=#f5f5f5;strokeColor=#666666;fontColor=#333333;fontStyle=1;fontSize=19;" vertex="1" parent="RrlbZwHQQJtH3pEjrHcR-1">
          <mxGeometry x="640" y="305" width="460" height="245" as="geometry" />
        </mxCell>
        <mxCell id="RrlbZwHQQJtH3pEjrHcR-3" style="edgeStyle=orthogonalEdgeStyle;rounded=0;orthogonalLoop=1;jettySize=auto;html=1;exitX=1;exitY=0.5;exitDx=0;exitDy=0;fontSize=16;" edge="1" parent="RrlbZwHQQJtH3pEjrHcR-1" source="RrlbZwHQQJtH3pEjrHcR-4" target="RrlbZwHQQJtH3pEjrHcR-8">
          <mxGeometry relative="1" as="geometry" />
        </mxCell>
        <mxCell id="RrlbZwHQQJtH3pEjrHcR-4" value="{ ticketId: &#39;123123&#39; }" style="rounded=0;whiteSpace=wrap;html=1;fontSize=15;fillColor=#dae8fc;strokeColor=#6c8ebf;" vertex="1" parent="RrlbZwHQQJtH3pEjrHcR-1">
          <mxGeometry x="340" y="312.5" width="230" height="45" as="geometry" />
        </mxCell>
        <mxCell id="RrlbZwHQQJtH3pEjrHcR-5" value="&lt;b&gt;Request to Purchase Ticket&lt;/b&gt;" style="rounded=0;whiteSpace=wrap;html=1;fontSize=15;fillColor=#dae8fc;strokeColor=#6c8ebf;" vertex="1" parent="RrlbZwHQQJtH3pEjrHcR-1">
          <mxGeometry x="340" y="287.5" width="230" height="25" as="geometry" />
        </mxCell>
        <mxCell id="RrlbZwHQQJtH3pEjrHcR-6" value="JWT, Cookie, ETC that is still valid!!!!" style="rounded=0;whiteSpace=wrap;html=1;fontSize=15;fillColor=#dae8fc;strokeColor=#6c8ebf;fontStyle=1" vertex="1" parent="RrlbZwHQQJtH3pEjrHcR-1">
          <mxGeometry x="340" y="357.5" width="230" height="45" as="geometry" />
        </mxCell>
        <mxCell id="RrlbZwHQQJtH3pEjrHcR-7" value="Orders Service" style="rounded=0;whiteSpace=wrap;html=1;fillColor=#f5f5f5;strokeColor=#666666;fontColor=#333333;fontStyle=1;fontSize=19;" vertex="1" parent="RrlbZwHQQJtH3pEjrHcR-1">
          <mxGeometry x="640" y="270" width="460" height="35" as="geometry" />
        </mxCell>
        <mxCell id="RrlbZwHQQJtH3pEjrHcR-8" value="&lt;b style=&quot;font-size: 16px;&quot;&gt;Ticket Purchase Logic&lt;/b&gt;" style="rounded=0;whiteSpace=wrap;html=1;fontSize=16;" vertex="1" parent="RrlbZwHQQJtH3pEjrHcR-1">
          <mxGeometry x="660" y="320" width="240" height="30" as="geometry" />
        </mxCell>
        <mxCell id="RrlbZwHQQJtH3pEjrHcR-9" value="" style="rounded=0;whiteSpace=wrap;html=1;fontSize=16;" vertex="1" parent="RrlbZwHQQJtH3pEjrHcR-1">
          <mxGeometry x="660" y="350" width="240" height="190" as="geometry" />
        </mxCell>
        <mxCell id="RrlbZwHQQJtH3pEjrHcR-10" style="edgeStyle=orthogonalEdgeStyle;rounded=0;orthogonalLoop=1;jettySize=auto;html=1;exitX=0.5;exitY=1;exitDx=0;exitDy=0;entryX=0.5;entryY=0;entryDx=0;entryDy=0;fontSize=16;" edge="1" parent="RrlbZwHQQJtH3pEjrHcR-1" source="RrlbZwHQQJtH3pEjrHcR-12" target="RrlbZwHQQJtH3pEjrHcR-14">
          <mxGeometry relative="1" as="geometry" />
        </mxCell>
        <mxCell id="RrlbZwHQQJtH3pEjrHcR-11" style="edgeStyle=orthogonalEdgeStyle;rounded=0;orthogonalLoop=1;jettySize=auto;html=1;exitX=1;exitY=0.5;exitDx=0;exitDy=0;entryX=0;entryY=0.25;entryDx=0;entryDy=0;fontSize=18;" edge="1" parent="RrlbZwHQQJtH3pEjrHcR-1" source="RrlbZwHQQJtH3pEjrHcR-12" target="RrlbZwHQQJtH3pEjrHcR-17">
          <mxGeometry relative="1" as="geometry" />
        </mxCell>
        <mxCell id="RrlbZwHQQJtH3pEjrHcR-12" value="Is this person logged in?" style="rounded=0;whiteSpace=wrap;html=1;fontSize=16;fillColor=#e1d5e7;strokeColor=#9673a6;" vertex="1" parent="RrlbZwHQQJtH3pEjrHcR-1">
          <mxGeometry x="685" y="362.5" width="190" height="40" as="geometry" />
        </mxCell>
        <mxCell id="RrlbZwHQQJtH3pEjrHcR-13" style="edgeStyle=orthogonalEdgeStyle;rounded=0;orthogonalLoop=1;jettySize=auto;html=1;exitX=0.5;exitY=1;exitDx=0;exitDy=0;fontSize=16;" edge="1" parent="RrlbZwHQQJtH3pEjrHcR-1" source="RrlbZwHQQJtH3pEjrHcR-14" target="RrlbZwHQQJtH3pEjrHcR-15">
          <mxGeometry relative="1" as="geometry" />
        </mxCell>
        <mxCell id="RrlbZwHQQJtH3pEjrHcR-14" value="Yes? Ok, can they purchase this ticket?" style="rounded=0;whiteSpace=wrap;html=1;fontSize=16;fillColor=#e1d5e7;strokeColor=#9673a6;" vertex="1" parent="RrlbZwHQQJtH3pEjrHcR-1">
          <mxGeometry x="685" y="420" width="190" height="40" as="geometry" />
        </mxCell>
        <mxCell id="RrlbZwHQQJtH3pEjrHcR-15" value="........" style="rounded=0;whiteSpace=wrap;html=1;fontSize=16;fillColor=#e1d5e7;strokeColor=#9673a6;" vertex="1" parent="RrlbZwHQQJtH3pEjrHcR-1">
          <mxGeometry x="685" y="480" width="190" height="40" as="geometry" />
        </mxCell>
        <mxCell id="RrlbZwHQQJtH3pEjrHcR-17" value="Logic to inspect JWT/Cookie and decide if user is authenticated" style="rounded=0;whiteSpace=wrap;html=1;shadow=0;labelBackgroundColor=none;fontSize=18;fillColor=#d5e8d4;strokeColor=#82b366;" vertex="1" parent="RrlbZwHQQJtH3pEjrHcR-1">
          <mxGeometry x="940" y="362.5" width="150" height="140" as="geometry" />
        </mxCell>
        <mxCell id="y7Kosh-4v3fPLEn6-rVl-2" style="edgeStyle=orthogonalEdgeStyle;rounded=0;orthogonalLoop=1;jettySize=auto;html=1;exitX=0.5;exitY=1;exitDx=0;exitDy=0;fontSize=15;" edge="1" parent="RrlbZwHQQJtH3pEjrHcR-1" source="y7Kosh-4v3fPLEn6-rVl-0" target="RrlbZwHQQJtH3pEjrHcR-5">
          <mxGeometry relative="1" as="geometry" />
        </mxCell>
        <mxCell id="y7Kosh-4v3fPLEn6-rVl-0" value="User ABC" style="rounded=0;whiteSpace=wrap;html=1;fontSize=24;fillColor=#ffe6cc;strokeColor=#d79b00;fontStyle=1" vertex="1" parent="RrlbZwHQQJtH3pEjrHcR-1">
          <mxGeometry x="362.5" y="170" width="185" height="80" as="geometry" />
        </mxCell>
        <mxCell id="DEot_D8Zo1QIW6oikc0f-0" value="Auth Service" style="rounded=0;whiteSpace=wrap;html=1;fillColor=#f5f5f5;strokeColor=#666666;fontColor=#333333;fontStyle=1;fontSize=19;" vertex="1" parent="RrlbZwHQQJtH3pEjrHcR-1">
          <mxGeometry x="1160" y="270" width="250" height="35" as="geometry" />
        </mxCell>
        <mxCell id="DEot_D8Zo1QIW6oikc0f-1" value="" style="rounded=0;whiteSpace=wrap;html=1;fillColor=#f5f5f5;strokeColor=#666666;fontColor=#333333;fontStyle=1;fontSize=19;" vertex="1" parent="RrlbZwHQQJtH3pEjrHcR-1">
          <mxGeometry x="1160" y="305" width="250" height="245" as="geometry" />
        </mxCell>
        <mxCell id="KnmQbRkdsp-t_GAe6hQd-0" value="{ id: &#39;UserABC&#39;, &lt;span style=&quot;font-size: 21px;&quot;&gt;hasAccess: false&lt;/span&gt; }" style="rounded=0;whiteSpace=wrap;html=1;shadow=0;labelBackgroundColor=none;fontSize=21;fillColor=#f8cecc;strokeColor=#b85450;fontStyle=1" vertex="1" parent="RrlbZwHQQJtH3pEjrHcR-1">
          <mxGeometry x="1175" y="330" width="220" height="77.5" as="geometry" />
        </mxCell>
      </root>
    </mxGraphModel>
  </diagram>
  <diagram id="rraXIS8cDYW4KU2Hvkq-" name="19 - forward">
    <mxGraphModel dx="834" dy="411" grid="1" gridSize="10" guides="1" tooltips="1" connect="1" arrows="1" fold="1" page="1" pageScale="1" pageWidth="1920" pageHeight="1200" math="0" shadow="0">
      <root>
        <mxCell id="TXqvsigzvDcrgNdg8o4w-0" />
        <mxCell id="TXqvsigzvDcrgNdg8o4w-1" parent="TXqvsigzvDcrgNdg8o4w-0" />
        <mxCell id="VKV-BhCqojhPq3fuJKn5-0" value="Fundamental Option #1" style="text;html=1;strokeColor=none;fillColor=none;align=center;verticalAlign=middle;whiteSpace=wrap;rounded=0;fontSize=24;fontStyle=5;shadow=0;labelBorderColor=none;labelBackgroundColor=none;" vertex="1" parent="TXqvsigzvDcrgNdg8o4w-1">
          <mxGeometry x="390" y="160" width="380" height="20" as="geometry" />
        </mxCell>
        <mxCell id="VKV-BhCqojhPq3fuJKn5-1" value="Individual services rely on the auth service" style="text;html=1;strokeColor=none;fillColor=none;align=center;verticalAlign=middle;whiteSpace=wrap;rounded=0;shadow=0;labelBackgroundColor=none;fontSize=18;fontStyle=2" vertex="1" parent="TXqvsigzvDcrgNdg8o4w-1">
          <mxGeometry x="465" y="197" width="230" height="20" as="geometry" />
        </mxCell>
        <mxCell id="oVtIhrRS2RFhsBWB4PC6-0" value="Fundamental Option #2" style="text;html=1;strokeColor=none;fillColor=none;align=center;verticalAlign=middle;whiteSpace=wrap;rounded=0;fontSize=24;fontStyle=5;shadow=0;labelBorderColor=none;labelBackgroundColor=none;" vertex="1" parent="TXqvsigzvDcrgNdg8o4w-1">
          <mxGeometry x="830" y="160" width="380" height="20" as="geometry" />
        </mxCell>
        <mxCell id="oVtIhrRS2RFhsBWB4PC6-1" value="Individual services know how to authenticate a user" style="text;html=1;strokeColor=none;fillColor=none;align=center;verticalAlign=middle;whiteSpace=wrap;rounded=0;shadow=0;labelBackgroundColor=none;fontSize=18;fontStyle=2" vertex="1" parent="TXqvsigzvDcrgNdg8o4w-1">
          <mxGeometry x="905" y="197" width="230" height="20" as="geometry" />
        </mxCell>
        <mxCell id="oVtIhrRS2RFhsBWB4PC6-2" value="Changes to auth state are immediately reflected" style="rounded=0;whiteSpace=wrap;html=1;shadow=0;labelBackgroundColor=none;fontSize=16;fillColor=#d5e8d4;strokeColor=#82b366;" vertex="1" parent="TXqvsigzvDcrgNdg8o4w-1">
          <mxGeometry x="400" y="240" width="360" height="40" as="geometry" />
        </mxCell>
        <mxCell id="oVtIhrRS2RFhsBWB4PC6-4" value="Auth service goes down?&amp;nbsp; Entire app is broken" style="rounded=0;whiteSpace=wrap;html=1;shadow=0;labelBackgroundColor=none;fontSize=16;fillColor=#fff2cc;strokeColor=#d6b656;" vertex="1" parent="TXqvsigzvDcrgNdg8o4w-1">
          <mxGeometry x="400" y="290" width="360" height="40" as="geometry" />
        </mxCell>
        <mxCell id="oVtIhrRS2RFhsBWB4PC6-5" value="Auth service is down? Who cares!" style="rounded=0;whiteSpace=wrap;html=1;shadow=0;labelBackgroundColor=none;fontSize=16;fillColor=#d5e8d4;strokeColor=#82b366;" vertex="1" parent="TXqvsigzvDcrgNdg8o4w-1">
          <mxGeometry x="840" y="240" width="360" height="40" as="geometry" />
        </mxCell>
        <mxCell id="oVtIhrRS2RFhsBWB4PC6-7" value="Some user got banned? Darn, I just gave them the keys to my car 5 minutes ago..." style="rounded=0;whiteSpace=wrap;html=1;shadow=0;labelBackgroundColor=none;fontSize=16;fillColor=#fff2cc;strokeColor=#d6b656;" vertex="1" parent="TXqvsigzvDcrgNdg8o4w-1">
          <mxGeometry x="840" y="290" width="360" height="40" as="geometry" />
        </mxCell>
      </root>
    </mxGraphModel>
  </diagram>
  <diagram name="20 - dir" id="ggsjhv_yOn0jmFpZfiHn">
    <mxGraphModel dx="834" dy="411" grid="1" gridSize="10" guides="1" tooltips="1" connect="1" arrows="1" fold="1" page="1" pageScale="1" pageWidth="1920" pageHeight="1200" math="0" shadow="0">
      <root>
        <mxCell id="Cnr4wcQTuCD2ekf2ZH8g-0" />
        <mxCell id="Cnr4wcQTuCD2ekf2ZH8g-1" parent="Cnr4wcQTuCD2ekf2ZH8g-0" />
        <mxCell id="Cnr4wcQTuCD2ekf2ZH8g-2" value="Fundamental Option #1" style="text;html=1;strokeColor=none;fillColor=none;align=center;verticalAlign=middle;whiteSpace=wrap;rounded=0;fontSize=24;fontStyle=5;shadow=0;labelBorderColor=none;labelBackgroundColor=none;" vertex="1" parent="Cnr4wcQTuCD2ekf2ZH8g-1">
          <mxGeometry x="390" y="160" width="380" height="20" as="geometry" />
        </mxCell>
        <mxCell id="Cnr4wcQTuCD2ekf2ZH8g-3" value="Individual services rely on the auth service" style="text;html=1;strokeColor=none;fillColor=none;align=center;verticalAlign=middle;whiteSpace=wrap;rounded=0;shadow=0;labelBackgroundColor=none;fontSize=18;fontStyle=2" vertex="1" parent="Cnr4wcQTuCD2ekf2ZH8g-1">
          <mxGeometry x="465" y="197" width="230" height="20" as="geometry" />
        </mxCell>
        <mxCell id="Cnr4wcQTuCD2ekf2ZH8g-4" value="Fundamental Option #2" style="text;html=1;strokeColor=none;fillColor=none;align=center;verticalAlign=middle;whiteSpace=wrap;rounded=0;fontSize=24;fontStyle=5;shadow=0;labelBorderColor=none;labelBackgroundColor=none;" vertex="1" parent="Cnr4wcQTuCD2ekf2ZH8g-1">
          <mxGeometry x="830" y="160" width="380" height="20" as="geometry" />
        </mxCell>
        <mxCell id="Cnr4wcQTuCD2ekf2ZH8g-5" value="Individual services know how to authenticate a user" style="text;html=1;strokeColor=none;fillColor=none;align=center;verticalAlign=middle;whiteSpace=wrap;rounded=0;shadow=0;labelBackgroundColor=none;fontSize=18;fontStyle=2" vertex="1" parent="Cnr4wcQTuCD2ekf2ZH8g-1">
          <mxGeometry x="905" y="197" width="230" height="20" as="geometry" />
        </mxCell>
        <mxCell id="Cnr4wcQTuCD2ekf2ZH8g-6" value="Changes to auth state are immediately reflected" style="rounded=0;whiteSpace=wrap;html=1;shadow=0;labelBackgroundColor=none;fontSize=16;fillColor=#d5e8d4;strokeColor=#82b366;" vertex="1" parent="Cnr4wcQTuCD2ekf2ZH8g-1">
          <mxGeometry x="400" y="240" width="360" height="40" as="geometry" />
        </mxCell>
        <mxCell id="Cnr4wcQTuCD2ekf2ZH8g-7" value="Auth service goes down?&amp;nbsp; Entire app is broken" style="rounded=0;whiteSpace=wrap;html=1;shadow=0;labelBackgroundColor=none;fontSize=16;fillColor=#fff2cc;strokeColor=#d6b656;" vertex="1" parent="Cnr4wcQTuCD2ekf2ZH8g-1">
          <mxGeometry x="400" y="290" width="360" height="40" as="geometry" />
        </mxCell>
        <mxCell id="Cnr4wcQTuCD2ekf2ZH8g-8" value="Auth service is down? Who cares!" style="rounded=0;whiteSpace=wrap;html=1;shadow=0;labelBackgroundColor=none;fontSize=16;fillColor=#d5e8d4;strokeColor=#82b366;" vertex="1" parent="Cnr4wcQTuCD2ekf2ZH8g-1">
          <mxGeometry x="840" y="240" width="360" height="40" as="geometry" />
        </mxCell>
        <mxCell id="Cnr4wcQTuCD2ekf2ZH8g-9" value="Some user got banned? Darn, I just gave them the keys to my car 5 minutes ago..." style="rounded=0;whiteSpace=wrap;html=1;shadow=0;labelBackgroundColor=none;fontSize=16;fillColor=#fff2cc;strokeColor=#d6b656;" vertex="1" parent="Cnr4wcQTuCD2ekf2ZH8g-1">
          <mxGeometry x="840" y="290" width="360" height="80" as="geometry" />
        </mxCell>
        <mxCell id="Cnr4wcQTuCD2ekf2ZH8g-10" value="We are going with Option #2 to stick with the idea of independent services" style="rounded=0;whiteSpace=wrap;html=1;shadow=0;labelBackgroundColor=none;fontSize=21;fontStyle=1;fillColor=#dae8fc;strokeColor=#6c8ebf;" vertex="1" parent="Cnr4wcQTuCD2ekf2ZH8g-1">
          <mxGeometry x="840" y="380" width="360" height="100" as="geometry" />
        </mxCell>
      </root>
    </mxGraphModel>
  </diagram>
  <diagram name="21 - mins" id="myNhoceE_ciDCw1svX3O">
    <mxGraphModel dx="884" dy="435" grid="1" gridSize="10" guides="1" tooltips="1" connect="1" arrows="1" fold="1" page="1" pageScale="1" pageWidth="1920" pageHeight="1200" math="0" shadow="0">
      <root>
        <mxCell id="OJ8FguzSb57_AUbekdwu-0" />
        <mxCell id="OJ8FguzSb57_AUbekdwu-1" parent="OJ8FguzSb57_AUbekdwu-0" />
        <mxCell id="OJ8FguzSb57_AUbekdwu-2" value="Auth Service" style="rounded=0;whiteSpace=wrap;html=1;fillColor=#f5f5f5;strokeColor=#666666;fontColor=#333333;fontStyle=1;fontSize=19;" vertex="1" parent="OJ8FguzSb57_AUbekdwu-1">
          <mxGeometry x="870" y="180" width="280" height="35" as="geometry" />
        </mxCell>
        <mxCell id="OJ8FguzSb57_AUbekdwu-3" value="" style="rounded=0;whiteSpace=wrap;html=1;fillColor=#f5f5f5;strokeColor=#666666;fontColor=#333333;fontStyle=1;fontSize=19;" vertex="1" parent="OJ8FguzSb57_AUbekdwu-1">
          <mxGeometry x="870" y="215" width="280" height="215" as="geometry" />
        </mxCell>
        <mxCell id="OJ8FguzSb57_AUbekdwu-4" value="Sign In Logic" style="rounded=0;whiteSpace=wrap;html=1;shadow=0;labelBackgroundColor=none;fontSize=18;fillColor=#d5e8d4;strokeColor=#82b366;fontStyle=1" vertex="1" parent="OJ8FguzSb57_AUbekdwu-1">
          <mxGeometry x="885" y="225" width="250" height="30" as="geometry" />
        </mxCell>
        <mxCell id="OJ8FguzSb57_AUbekdwu-5" value="{ email: &#39;...&#39;, password: &#39;...&#39; }" style="rounded=0;whiteSpace=wrap;html=1;fontSize=15;fillColor=#dae8fc;strokeColor=#6c8ebf;" vertex="1" parent="OJ8FguzSb57_AUbekdwu-1">
          <mxGeometry x="600" y="244" width="230" height="45" as="geometry" />
        </mxCell>
        <mxCell id="OJ8FguzSb57_AUbekdwu-6" value="&lt;b&gt;Request to Sign In&lt;/b&gt;" style="rounded=0;whiteSpace=wrap;html=1;fontSize=15;fillColor=#dae8fc;strokeColor=#6c8ebf;" vertex="1" parent="OJ8FguzSb57_AUbekdwu-1">
          <mxGeometry x="600" y="219" width="230" height="25" as="geometry" />
        </mxCell>
        <mxCell id="OJ8FguzSb57_AUbekdwu-7" value="" style="rounded=0;whiteSpace=wrap;html=1;shadow=0;labelBackgroundColor=none;fontSize=18;fillColor=#d5e8d4;strokeColor=#82b366;fontStyle=1" vertex="1" parent="OJ8FguzSb57_AUbekdwu-1">
          <mxGeometry x="885" y="255" width="250" height="155" as="geometry" />
        </mxCell>
        <mxCell id="OJ8FguzSb57_AUbekdwu-8" style="edgeStyle=orthogonalEdgeStyle;rounded=0;orthogonalLoop=1;jettySize=auto;html=1;exitX=0.5;exitY=1;exitDx=0;exitDy=0;fontSize=12;" edge="1" parent="OJ8FguzSb57_AUbekdwu-1" source="OJ8FguzSb57_AUbekdwu-9" target="OJ8FguzSb57_AUbekdwu-10">
          <mxGeometry relative="1" as="geometry" />
        </mxCell>
        <mxCell id="OJ8FguzSb57_AUbekdwu-9" value="Email good? Password good?" style="rounded=0;whiteSpace=wrap;html=1;shadow=0;labelBackgroundColor=none;fontSize=12;" vertex="1" parent="OJ8FguzSb57_AUbekdwu-1">
          <mxGeometry x="895" y="270" width="230" height="40" as="geometry" />
        </mxCell>
        <mxCell id="OJ8FguzSb57_AUbekdwu-10" value="Yes? Great. Here&#39;s a token to identify you.&amp;nbsp; Include it on all followup requests" style="rounded=0;whiteSpace=wrap;html=1;shadow=0;labelBackgroundColor=none;fontSize=12;" vertex="1" parent="OJ8FguzSb57_AUbekdwu-1">
          <mxGeometry x="895" y="330" width="230" height="40" as="geometry" />
        </mxCell>
        <mxCell id="OJ8FguzSb57_AUbekdwu-11" value="User ABC" style="rounded=0;whiteSpace=wrap;html=1;fontSize=24;fillColor=#ffe6cc;strokeColor=#d79b00;" vertex="1" parent="OJ8FguzSb57_AUbekdwu-1">
          <mxGeometry x="415" y="225" width="140" height="195" as="geometry" />
        </mxCell>
        <mxCell id="OJ8FguzSb57_AUbekdwu-12" value="" style="endArrow=classic;html=1;fontSize=24;" edge="1" parent="OJ8FguzSb57_AUbekdwu-1">
          <mxGeometry width="50" height="50" relative="1" as="geometry">
            <mxPoint x="555" y="289.71000000000004" as="sourcePoint" />
            <mxPoint x="895" y="289.71000000000004" as="targetPoint" />
          </mxGeometry>
        </mxCell>
        <mxCell id="OJ8FguzSb57_AUbekdwu-13" value="" style="endArrow=classic;html=1;fontSize=24;" edge="1" parent="OJ8FguzSb57_AUbekdwu-1">
          <mxGeometry width="50" height="50" relative="1" as="geometry">
            <mxPoint x="895" y="349.71000000000004" as="sourcePoint" />
            <mxPoint x="555" y="349.71000000000004" as="targetPoint" />
          </mxGeometry>
        </mxCell>
        <mxCell id="OJ8FguzSb57_AUbekdwu-14" value="JWT, Cookie, Whatever &lt;b&gt;that is only good for 15 minutes&lt;/b&gt;" style="rounded=0;whiteSpace=wrap;html=1;fontSize=15;fillColor=#dae8fc;strokeColor=#6c8ebf;" vertex="1" parent="OJ8FguzSb57_AUbekdwu-1">
          <mxGeometry x="600" y="350" width="230" height="45" as="geometry" />
        </mxCell>
      </root>
    </mxGraphModel>
  </diagram>
  <diagram name="22 - s" id="1sckNwsyvMNahHh5-zv5">
    <mxGraphModel dx="1073" dy="528" grid="1" gridSize="10" guides="1" tooltips="1" connect="1" arrows="1" fold="1" page="1" pageScale="1" pageWidth="1920" pageHeight="1200" math="0" shadow="0">
      <root>
        <mxCell id="mx2totCMR_bzpBbMa4Po-0" />
        <mxCell id="mx2totCMR_bzpBbMa4Po-1" parent="mx2totCMR_bzpBbMa4Po-0" />
        <mxCell id="mx2totCMR_bzpBbMa4Po-2" value="" style="rounded=0;whiteSpace=wrap;html=1;fillColor=#f5f5f5;strokeColor=#666666;fontColor=#333333;fontStyle=1;fontSize=19;" vertex="1" parent="mx2totCMR_bzpBbMa4Po-1">
          <mxGeometry x="640" y="305" width="460" height="245" as="geometry" />
        </mxCell>
        <mxCell id="mx2totCMR_bzpBbMa4Po-3" style="edgeStyle=orthogonalEdgeStyle;rounded=0;orthogonalLoop=1;jettySize=auto;html=1;exitX=1;exitY=0.5;exitDx=0;exitDy=0;fontSize=16;" edge="1" parent="mx2totCMR_bzpBbMa4Po-1" source="mx2totCMR_bzpBbMa4Po-4" target="mx2totCMR_bzpBbMa4Po-8">
          <mxGeometry relative="1" as="geometry" />
        </mxCell>
        <mxCell id="mx2totCMR_bzpBbMa4Po-4" value="{ ticketId: &#39;123123&#39; }" style="rounded=0;whiteSpace=wrap;html=1;fontSize=15;fillColor=#dae8fc;strokeColor=#6c8ebf;" vertex="1" parent="mx2totCMR_bzpBbMa4Po-1">
          <mxGeometry x="340" y="312.5" width="230" height="45" as="geometry" />
        </mxCell>
        <mxCell id="mx2totCMR_bzpBbMa4Po-5" value="&lt;b&gt;Request to Purchase Ticket&lt;/b&gt;" style="rounded=0;whiteSpace=wrap;html=1;fontSize=15;fillColor=#dae8fc;strokeColor=#6c8ebf;" vertex="1" parent="mx2totCMR_bzpBbMa4Po-1">
          <mxGeometry x="340" y="287.5" width="230" height="25" as="geometry" />
        </mxCell>
        <mxCell id="mx2totCMR_bzpBbMa4Po-6" value="JWT, Cookie, etc that is 10 seconds old" style="rounded=0;whiteSpace=wrap;html=1;fontSize=22;fillColor=#dae8fc;strokeColor=#6c8ebf;fontStyle=1" vertex="1" parent="mx2totCMR_bzpBbMa4Po-1">
          <mxGeometry x="340" y="357.5" width="230" height="82.5" as="geometry" />
        </mxCell>
        <mxCell id="mx2totCMR_bzpBbMa4Po-7" value="Orders Service" style="rounded=0;whiteSpace=wrap;html=1;fillColor=#f5f5f5;strokeColor=#666666;fontColor=#333333;fontStyle=1;fontSize=19;" vertex="1" parent="mx2totCMR_bzpBbMa4Po-1">
          <mxGeometry x="640" y="270" width="460" height="35" as="geometry" />
        </mxCell>
        <mxCell id="mx2totCMR_bzpBbMa4Po-8" value="&lt;b style=&quot;font-size: 16px;&quot;&gt;Ticket Purchase Logic&lt;/b&gt;" style="rounded=0;whiteSpace=wrap;html=1;fontSize=16;" vertex="1" parent="mx2totCMR_bzpBbMa4Po-1">
          <mxGeometry x="660" y="320" width="240" height="30" as="geometry" />
        </mxCell>
        <mxCell id="mx2totCMR_bzpBbMa4Po-9" value="" style="rounded=0;whiteSpace=wrap;html=1;fontSize=16;" vertex="1" parent="mx2totCMR_bzpBbMa4Po-1">
          <mxGeometry x="660" y="350" width="240" height="190" as="geometry" />
        </mxCell>
        <mxCell id="mx2totCMR_bzpBbMa4Po-10" style="edgeStyle=orthogonalEdgeStyle;rounded=0;orthogonalLoop=1;jettySize=auto;html=1;exitX=0.5;exitY=1;exitDx=0;exitDy=0;entryX=0.5;entryY=0;entryDx=0;entryDy=0;fontSize=16;" edge="1" parent="mx2totCMR_bzpBbMa4Po-1" source="mx2totCMR_bzpBbMa4Po-12" target="mx2totCMR_bzpBbMa4Po-14">
          <mxGeometry relative="1" as="geometry" />
        </mxCell>
        <mxCell id="mx2totCMR_bzpBbMa4Po-11" style="edgeStyle=orthogonalEdgeStyle;rounded=0;orthogonalLoop=1;jettySize=auto;html=1;exitX=1;exitY=0.5;exitDx=0;exitDy=0;entryX=0;entryY=0.25;entryDx=0;entryDy=0;fontSize=18;" edge="1" parent="mx2totCMR_bzpBbMa4Po-1" source="mx2totCMR_bzpBbMa4Po-12" target="mx2totCMR_bzpBbMa4Po-16">
          <mxGeometry relative="1" as="geometry" />
        </mxCell>
        <mxCell id="pCbKBv9EZM4Lqaqebi_x-0" style="edgeStyle=orthogonalEdgeStyle;rounded=0;orthogonalLoop=1;jettySize=auto;html=1;exitX=0;exitY=0.75;exitDx=0;exitDy=0;entryX=1;entryY=0.25;entryDx=0;entryDy=0;fontSize=17;" edge="1" parent="mx2totCMR_bzpBbMa4Po-1" source="mx2totCMR_bzpBbMa4Po-12" target="mx2totCMR_bzpBbMa4Po-6">
          <mxGeometry relative="1" as="geometry" />
        </mxCell>
        <mxCell id="mx2totCMR_bzpBbMa4Po-12" value="Is this person logged in?" style="rounded=0;whiteSpace=wrap;html=1;fontSize=16;fillColor=#e1d5e7;strokeColor=#9673a6;" vertex="1" parent="mx2totCMR_bzpBbMa4Po-1">
          <mxGeometry x="685" y="362.5" width="190" height="40" as="geometry" />
        </mxCell>
        <mxCell id="mx2totCMR_bzpBbMa4Po-13" style="edgeStyle=orthogonalEdgeStyle;rounded=0;orthogonalLoop=1;jettySize=auto;html=1;exitX=0.5;exitY=1;exitDx=0;exitDy=0;fontSize=16;" edge="1" parent="mx2totCMR_bzpBbMa4Po-1" source="mx2totCMR_bzpBbMa4Po-14" target="mx2totCMR_bzpBbMa4Po-15">
          <mxGeometry relative="1" as="geometry" />
        </mxCell>
        <mxCell id="mx2totCMR_bzpBbMa4Po-14" value="Yes? Ok, can they purchase this ticket?" style="rounded=0;whiteSpace=wrap;html=1;fontSize=16;fillColor=#e1d5e7;strokeColor=#9673a6;" vertex="1" parent="mx2totCMR_bzpBbMa4Po-1">
          <mxGeometry x="685" y="420" width="190" height="40" as="geometry" />
        </mxCell>
        <mxCell id="mx2totCMR_bzpBbMa4Po-15" value="........" style="rounded=0;whiteSpace=wrap;html=1;fontSize=16;fillColor=#e1d5e7;strokeColor=#9673a6;" vertex="1" parent="mx2totCMR_bzpBbMa4Po-1">
          <mxGeometry x="685" y="480" width="190" height="40" as="geometry" />
        </mxCell>
        <mxCell id="mx2totCMR_bzpBbMa4Po-16" value="Logic to inspect JWT/Cookie and decide if user is authenticated.&amp;nbsp; If JWT/Cookie is older than 30 mins, reach to auth service" style="rounded=0;whiteSpace=wrap;html=1;shadow=0;labelBackgroundColor=none;fontSize=18;fillColor=#d5e8d4;strokeColor=#82b366;" vertex="1" parent="mx2totCMR_bzpBbMa4Po-1">
          <mxGeometry x="940" y="341.25" width="150" height="172.5" as="geometry" />
        </mxCell>
        <mxCell id="mx2totCMR_bzpBbMa4Po-17" style="edgeStyle=orthogonalEdgeStyle;rounded=0;orthogonalLoop=1;jettySize=auto;html=1;exitX=0.5;exitY=1;exitDx=0;exitDy=0;fontSize=15;" edge="1" parent="mx2totCMR_bzpBbMa4Po-1" source="mx2totCMR_bzpBbMa4Po-18" target="mx2totCMR_bzpBbMa4Po-5">
          <mxGeometry relative="1" as="geometry" />
        </mxCell>
        <mxCell id="mx2totCMR_bzpBbMa4Po-18" value="User ABC" style="rounded=0;whiteSpace=wrap;html=1;fontSize=24;fillColor=#ffe6cc;strokeColor=#d79b00;fontStyle=1" vertex="1" parent="mx2totCMR_bzpBbMa4Po-1">
          <mxGeometry x="362.5" y="170" width="185" height="80" as="geometry" />
        </mxCell>
        <mxCell id="mx2totCMR_bzpBbMa4Po-19" value="Auth Service" style="rounded=0;whiteSpace=wrap;html=1;fillColor=#f5f5f5;strokeColor=#666666;fontColor=#333333;fontStyle=1;fontSize=19;" vertex="1" parent="mx2totCMR_bzpBbMa4Po-1">
          <mxGeometry x="1160" y="270" width="250" height="35" as="geometry" />
        </mxCell>
        <mxCell id="mx2totCMR_bzpBbMa4Po-20" value="" style="rounded=0;whiteSpace=wrap;html=1;fillColor=#f5f5f5;strokeColor=#666666;fontColor=#333333;fontStyle=1;fontSize=19;" vertex="1" parent="mx2totCMR_bzpBbMa4Po-1">
          <mxGeometry x="1160" y="305" width="250" height="245" as="geometry" />
        </mxCell>
        <mxCell id="mx2totCMR_bzpBbMa4Po-21" value="Token refresh logic" style="rounded=0;whiteSpace=wrap;html=1;shadow=0;labelBackgroundColor=none;fontSize=21;fillColor=#f8cecc;strokeColor=#b85450;fontStyle=1" vertex="1" parent="mx2totCMR_bzpBbMa4Po-1">
          <mxGeometry x="1175" y="330" width="220" height="77.5" as="geometry" />
        </mxCell>
        <mxCell id="pCbKBv9EZM4Lqaqebi_x-1" style="edgeStyle=orthogonalEdgeStyle;rounded=0;orthogonalLoop=1;jettySize=auto;html=1;exitX=0.75;exitY=1;exitDx=0;exitDy=0;entryX=0.25;entryY=1;entryDx=0;entryDy=0;fontSize=17;" edge="1" parent="mx2totCMR_bzpBbMa4Po-1" source="mx2totCMR_bzpBbMa4Po-6" target="mx2totCMR_bzpBbMa4Po-21">
          <mxGeometry relative="1" as="geometry">
            <Array as="points">
              <mxPoint x="513" y="620" />
              <mxPoint x="1230" y="620" />
            </Array>
          </mxGeometry>
        </mxCell>
      </root>
    </mxGraphModel>
  </diagram>
  <diagram name="23 - cache" id="hjFDUNNyObNccvsDU8KH">
    <mxGraphModel dx="1036" dy="510" grid="1" gridSize="10" guides="1" tooltips="1" connect="1" arrows="1" fold="1" page="1" pageScale="1" pageWidth="1920" pageHeight="1200" math="0" shadow="0">
      <root>
        <mxCell id="X6l-IO8QkY3zrHHXO-gK-0" />
        <mxCell id="X6l-IO8QkY3zrHHXO-gK-1" parent="X6l-IO8QkY3zrHHXO-gK-0" />
        <mxCell id="X6l-IO8QkY3zrHHXO-gK-2" value="Auth Service" style="rounded=0;whiteSpace=wrap;html=1;fillColor=#f5f5f5;strokeColor=#666666;fontColor=#333333;fontStyle=1;fontSize=19;" vertex="1" parent="X6l-IO8QkY3zrHHXO-gK-1">
          <mxGeometry x="870" y="180" width="250" height="35" as="geometry" />
        </mxCell>
        <mxCell id="X6l-IO8QkY3zrHHXO-gK-3" value="" style="rounded=0;whiteSpace=wrap;html=1;fillColor=#f5f5f5;strokeColor=#666666;fontColor=#333333;fontStyle=1;fontSize=19;" vertex="1" parent="X6l-IO8QkY3zrHHXO-gK-1">
          <mxGeometry x="870" y="215" width="250" height="215" as="geometry" />
        </mxCell>
        <mxCell id="X6l-IO8QkY3zrHHXO-gK-4" value="User Management Logic" style="rounded=0;whiteSpace=wrap;html=1;shadow=0;labelBackgroundColor=none;fontSize=18;fillColor=#d5e8d4;strokeColor=#82b366;fontStyle=1" vertex="1" parent="X6l-IO8QkY3zrHHXO-gK-1">
          <mxGeometry x="885" y="225" width="225" height="30" as="geometry" />
        </mxCell>
        <mxCell id="X6l-IO8QkY3zrHHXO-gK-5" value="" style="rounded=0;whiteSpace=wrap;html=1;shadow=0;labelBackgroundColor=none;fontSize=18;fillColor=#d5e8d4;strokeColor=#82b366;fontStyle=1" vertex="1" parent="X6l-IO8QkY3zrHHXO-gK-1">
          <mxGeometry x="885" y="255" width="225" height="165" as="geometry" />
        </mxCell>
        <mxCell id="X6l-IO8QkY3zrHHXO-gK-17" style="edgeStyle=orthogonalEdgeStyle;rounded=0;orthogonalLoop=1;jettySize=auto;html=1;exitX=0.5;exitY=1;exitDx=0;exitDy=0;fontSize=22;" edge="1" parent="X6l-IO8QkY3zrHHXO-gK-1" source="X6l-IO8QkY3zrHHXO-gK-7" target="X6l-IO8QkY3zrHHXO-gK-15">
          <mxGeometry relative="1" as="geometry" />
        </mxCell>
        <mxCell id="X6l-IO8QkY3zrHHXO-gK-7" value="Ban UserABC?&amp;nbsp; OK, I will update the database" style="rounded=0;whiteSpace=wrap;html=1;shadow=0;labelBackgroundColor=none;fontSize=15;" vertex="1" parent="X6l-IO8QkY3zrHHXO-gK-1">
          <mxGeometry x="916.25" y="275.75" width="162.5" height="54.25" as="geometry" />
        </mxCell>
        <mxCell id="X6l-IO8QkY3zrHHXO-gK-8" value="{ id: &#39;UserABC&#39; }" style="rounded=0;whiteSpace=wrap;html=1;fontSize=15;fillColor=#dae8fc;strokeColor=#6c8ebf;" vertex="1" parent="X6l-IO8QkY3zrHHXO-gK-1">
          <mxGeometry x="700" y="264" width="140" height="45" as="geometry" />
        </mxCell>
        <mxCell id="X6l-IO8QkY3zrHHXO-gK-9" value="&lt;b&gt;Request to BAN a User&lt;/b&gt;" style="rounded=0;whiteSpace=wrap;html=1;fontSize=15;fillColor=#dae8fc;strokeColor=#6c8ebf;" vertex="1" parent="X6l-IO8QkY3zrHHXO-gK-1">
          <mxGeometry x="700" y="219" width="140" height="45" as="geometry" />
        </mxCell>
        <mxCell id="X6l-IO8QkY3zrHHXO-gK-10" value="Auth MongoDB" style="rounded=0;whiteSpace=wrap;html=1;fillColor=#f5f5f5;strokeColor=#666666;fontColor=#333333;fontStyle=1;fontSize=19;" vertex="1" parent="X6l-IO8QkY3zrHHXO-gK-1">
          <mxGeometry x="1180" y="180" width="280" height="35" as="geometry" />
        </mxCell>
        <mxCell id="X6l-IO8QkY3zrHHXO-gK-11" value="" style="rounded=0;whiteSpace=wrap;html=1;fillColor=#f5f5f5;strokeColor=#666666;fontColor=#333333;fontStyle=1;fontSize=19;" vertex="1" parent="X6l-IO8QkY3zrHHXO-gK-1">
          <mxGeometry x="1180" y="215" width="280" height="215" as="geometry" />
        </mxCell>
        <mxCell id="X6l-IO8QkY3zrHHXO-gK-12" value="{ id: &#39;UserABC&#39;, &lt;b&gt;hasAccess: false&lt;/b&gt; }" style="rounded=0;whiteSpace=wrap;html=1;shadow=0;labelBackgroundColor=none;fontSize=16;" vertex="1" parent="X6l-IO8QkY3zrHHXO-gK-1">
          <mxGeometry x="1195" y="244" width="250" height="77.5" as="geometry" />
        </mxCell>
        <mxCell id="X6l-IO8QkY3zrHHXO-gK-13" value="" style="endArrow=classic;html=1;fontSize=16;" edge="1" parent="X6l-IO8QkY3zrHHXO-gK-1">
          <mxGeometry width="50" height="50" relative="1" as="geometry">
            <mxPoint x="557.5" y="310" as="sourcePoint" />
            <mxPoint x="917.5" y="310" as="targetPoint" />
          </mxGeometry>
        </mxCell>
        <mxCell id="X6l-IO8QkY3zrHHXO-gK-14" value="Admin User" style="rounded=0;whiteSpace=wrap;html=1;fontSize=24;fillColor=#ffe6cc;strokeColor=#d79b00;" vertex="1" parent="X6l-IO8QkY3zrHHXO-gK-1">
          <mxGeometry x="540" y="219" width="115" height="191" as="geometry" />
        </mxCell>
        <mxCell id="X6l-IO8QkY3zrHHXO-gK-6" style="edgeStyle=orthogonalEdgeStyle;rounded=0;orthogonalLoop=1;jettySize=auto;html=1;exitX=1;exitY=0.5;exitDx=0;exitDy=0;fontSize=21;" edge="1" parent="X6l-IO8QkY3zrHHXO-gK-1" source="X6l-IO8QkY3zrHHXO-gK-7" target="X6l-IO8QkY3zrHHXO-gK-12">
          <mxGeometry relative="1" as="geometry" />
        </mxCell>
        <mxCell id="X6l-IO8QkY3zrHHXO-gK-15" value="I will also emit a &#39;user banned&#39; event" style="rounded=0;whiteSpace=wrap;html=1;shadow=0;labelBackgroundColor=none;fontSize=15;" vertex="1" parent="X6l-IO8QkY3zrHHXO-gK-1">
          <mxGeometry x="916.25" y="355.75" width="162.5" height="54.25" as="geometry" />
        </mxCell>
        <mxCell id="X6l-IO8QkY3zrHHXO-gK-18" value="Orders Service" style="rounded=0;whiteSpace=wrap;html=1;fillColor=#f5f5f5;strokeColor=#666666;fontColor=#333333;fontStyle=1;fontSize=19;" vertex="1" parent="X6l-IO8QkY3zrHHXO-gK-1">
          <mxGeometry x="1180" y="450" width="280" height="35" as="geometry" />
        </mxCell>
        <mxCell id="X6l-IO8QkY3zrHHXO-gK-19" value="" style="rounded=0;whiteSpace=wrap;html=1;fillColor=#f5f5f5;strokeColor=#666666;fontColor=#333333;fontStyle=1;fontSize=19;" vertex="1" parent="X6l-IO8QkY3zrHHXO-gK-1">
          <mxGeometry x="1180" y="485" width="280" height="155" as="geometry" />
        </mxCell>
        <mxCell id="X6l-IO8QkY3zrHHXO-gK-20" value="Event Bus" style="rounded=0;whiteSpace=wrap;html=1;fillColor=#f5f5f5;strokeColor=#666666;fontColor=#333333;fontStyle=1;fontSize=19;" vertex="1" parent="X6l-IO8QkY3zrHHXO-gK-1">
          <mxGeometry x="870" y="605" width="250" height="35" as="geometry" />
        </mxCell>
        <mxCell id="X6l-IO8QkY3zrHHXO-gK-21" value="" style="rounded=0;whiteSpace=wrap;html=1;fillColor=#f5f5f5;strokeColor=#666666;fontColor=#333333;fontStyle=1;fontSize=19;" vertex="1" parent="X6l-IO8QkY3zrHHXO-gK-1">
          <mxGeometry x="870" y="450" width="250" height="155" as="geometry" />
        </mxCell>
        <mxCell id="9ShG5sjr70rGomTdDyII-0" style="edgeStyle=orthogonalEdgeStyle;rounded=0;orthogonalLoop=1;jettySize=auto;html=1;exitX=1;exitY=0.5;exitDx=0;exitDy=0;fontSize=17;" edge="1" parent="X6l-IO8QkY3zrHHXO-gK-1" source="X6l-IO8QkY3zrHHXO-gK-22" target="X6l-IO8QkY3zrHHXO-gK-18">
          <mxGeometry relative="1" as="geometry" />
        </mxCell>
        <mxCell id="X6l-IO8QkY3zrHHXO-gK-22" value="UserBanned&lt;br&gt;Event" style="rounded=0;whiteSpace=wrap;html=1;shadow=0;labelBackgroundColor=none;fontSize=20;fillColor=#f8cecc;strokeColor=#b85450;fontStyle=1" vertex="1" parent="X6l-IO8QkY3zrHHXO-gK-1">
          <mxGeometry x="913.75" y="482.5" width="162.5" height="54.25" as="geometry" />
        </mxCell>
        <mxCell id="X6l-IO8QkY3zrHHXO-gK-23" value="Short-lived in memory cache recording banned users&lt;br&gt;&lt;br&gt;&lt;br&gt;" style="rounded=0;whiteSpace=wrap;html=1;shadow=0;labelBackgroundColor=none;fontSize=16;" vertex="1" parent="X6l-IO8QkY3zrHHXO-gK-1">
          <mxGeometry x="1195" y="510" width="250" height="100" as="geometry" />
        </mxCell>
        <mxCell id="X6l-IO8QkY3zrHHXO-gK-24" value="{ id: &#39;UserAbc&#39; }" style="rounded=0;whiteSpace=wrap;html=1;shadow=0;labelBackgroundColor=none;fontSize=17;fillColor=#f8cecc;strokeColor=#b85450;fontStyle=0" vertex="1" parent="X6l-IO8QkY3zrHHXO-gK-1">
          <mxGeometry x="1238.75" y="564" width="162.5" height="35.75" as="geometry" />
        </mxCell>
      </root>
    </mxGraphModel>
  </diagram>
</mxfile>
